<?xml version="1.0" encoding="UTF-8"?>
<!-- Generator: visioncortex VTracer 0.6.3 -->
<svg version="1.1" xmlns="http://www.w3.org/2000/svg" width="1280" height="1280">
<path d="M0 0 C422.4 0 844.8 0 1280 0 C1280 422.4 1280 844.8 1280 1280 C857.6 1280 435.2 1280 0 1280 C0 857.6 0 435.2 0 0 Z " fill="#FBFCFE" transform="translate(0,0)"/>
<path d="M0 0 C1.9 -0.01 1.9 -0.01 3.83 -0.02 C5.23 -0.01 6.63 -0.01 8.03 -0.01 C9.52 -0.01 11.01 -0.01 12.5 -0.02 C16.6 -0.03 20.69 -0.03 24.79 -0.02 C29.2 -0.02 33.62 -0.03 38.04 -0.04 C46.69 -0.05 55.34 -0.05 63.99 -0.05 C71.02 -0.05 78.05 -0.05 85.08 -0.05 C86.58 -0.05 86.58 -0.05 88.11 -0.05 C90.14 -0.06 92.17 -0.06 94.2 -0.06 C113.25 -0.07 132.31 -0.07 151.36 -0.06 C168.8 -0.05 186.24 -0.07 203.68 -0.09 C221.58 -0.1 239.47 -0.11 257.37 -0.11 C267.43 -0.11 277.48 -0.11 287.53 -0.12 C296.09 -0.14 304.64 -0.14 313.2 -0.13 C317.57 -0.12 321.93 -0.12 326.3 -0.13 C330.3 -0.14 334.29 -0.14 338.29 -0.12 C339.73 -0.12 341.18 -0.12 342.63 -0.13 C344.59 -0.14 346.56 -0.13 348.52 -0.12 C349.61 -0.12 350.71 -0.12 351.83 -0.12 C355.19 0.31 357.05 1.26 359.76 3.25 C362.85 7.55 363.88 11.3 363.89 16.52 C363.9 17.38 363.9 18.23 363.9 19.1 C363.9 20.03 363.9 20.96 363.9 21.92 C363.91 23.41 363.91 23.41 363.91 24.92 C363.92 28.26 363.92 31.59 363.92 34.92 C363.93 37.3 363.93 39.69 363.94 42.07 C363.95 48.56 363.96 55.05 363.96 61.53 C363.96 65.58 363.97 69.63 363.97 73.68 C363.98 84.89 364 96.11 364 107.32 C364 108.04 364 108.76 364 109.5 C364 110.22 364 110.93 364 111.68 C364 113.13 364 114.59 364 116.05 C364 116.77 364 117.49 364 118.24 C364.01 129.95 364.02 141.67 364.05 153.39 C364.07 165.42 364.08 177.45 364.08 189.48 C364.08 196.23 364.09 202.99 364.11 209.74 C364.13 216.09 364.13 222.44 364.12 228.79 C364.12 231.13 364.12 233.46 364.13 235.79 C364.14 238.97 364.14 242.15 364.13 245.33 C364.14 246.72 364.14 246.72 364.15 248.14 C364.11 253.25 363.72 256.9 360.76 261.25 C357 264.87 354.67 265.76 349.48 265.76 C347.57 265.78 347.57 265.78 345.62 265.79 C344.21 265.79 342.8 265.78 341.39 265.77 C339.89 265.77 338.39 265.78 336.89 265.79 C332.76 265.81 328.63 265.8 324.51 265.79 C320.06 265.79 315.61 265.8 311.16 265.81 C302.45 265.84 293.73 265.84 285.02 265.83 C277.93 265.82 270.85 265.82 263.76 265.83 C262.76 265.83 261.75 265.83 260.71 265.83 C258.66 265.83 256.62 265.84 254.57 265.84 C235.37 265.85 216.17 265.84 196.97 265.83 C179.39 265.81 161.82 265.83 144.25 265.86 C126.22 265.89 108.18 265.9 90.14 265.89 C88.1 265.89 86.06 265.89 84.02 265.88 C82.52 265.88 82.52 265.88 80.98 265.88 C73.91 265.88 66.83 265.89 59.76 265.91 C51.14 265.92 42.51 265.92 33.89 265.9 C29.49 265.89 25.09 265.89 20.69 265.9 C16.66 265.92 12.64 265.91 8.61 265.89 C7.15 265.89 5.7 265.89 4.24 265.9 C-7.99 266 -7.99 266 -12.53 262.97 C-16.08 259.41 -17.49 256.94 -17.5 251.92 C-17.51 251.06 -17.52 250.2 -17.53 249.31 C-17.52 248.36 -17.52 247.42 -17.52 246.44 C-17.53 245.44 -17.53 244.43 -17.54 243.39 C-17.56 240.01 -17.56 236.62 -17.56 233.24 C-17.57 230.81 -17.58 228.39 -17.59 225.97 C-17.62 219.38 -17.63 212.79 -17.64 206.2 C-17.65 202.09 -17.65 197.97 -17.66 193.86 C-17.69 182.46 -17.71 171.07 -17.71 159.67 C-17.71 158.95 -17.72 158.22 -17.72 157.46 C-17.72 156.73 -17.72 156 -17.72 155.25 C-17.72 153.77 -17.72 152.29 -17.72 150.81 C-17.72 150.07 -17.72 149.34 -17.72 148.58 C-17.73 136.68 -17.76 124.78 -17.81 112.87 C-17.86 100.65 -17.88 88.43 -17.89 76.2 C-17.89 69.34 -17.9 62.48 -17.93 55.62 C-17.97 49.16 -17.97 42.71 -17.95 36.25 C-17.95 33.89 -17.96 31.52 -17.98 29.15 C-18.01 25.91 -18 22.68 -17.97 19.45 C-17.99 18.51 -18.01 17.57 -18.02 16.6 C-17.94 10.94 -16.87 7.81 -13.01 3.62 C-8.91 0.46 -5.08 0 0 0 Z " fill="#030406" transform="translate(472.23914337158203,335.7455244064331)"/>
<path d="M0 0 C4.22 0.63 7.51 2.08 11.3 4.01 C11.92 4.32 12.54 4.63 13.18 4.95 C15.24 5.99 17.3 7.04 19.36 8.09 C20.84 8.84 22.33 9.59 23.81 10.34 C27 11.95 30.19 13.56 33.37 15.18 C38.42 17.74 43.47 20.29 48.52 22.83 C62.88 30.07 77.24 37.31 91.58 44.58 C99.5 48.6 107.43 52.61 115.37 56.59 C119.57 58.7 123.76 60.82 127.95 62.96 C131.88 64.96 135.83 66.96 139.79 68.93 C141.23 69.66 142.68 70.39 144.11 71.13 C154.98 76.8 154.98 76.8 167 77 C169.73 76.09 172.12 74.92 174.62 73.5 C176.02 72.76 177.41 72.02 178.8 71.28 C179.85 70.71 179.85 70.71 180.92 70.12 C184.18 68.36 187.49 66.71 190.81 65.06 C191.47 64.73 192.12 64.41 192.79 64.07 C197.93 61.5 203.11 59.06 208.31 56.62 C215.59 53.21 222.73 49.6 229.8 45.8 C234.59 43.24 239.43 40.77 244.29 38.35 C249.88 35.56 255.46 32.77 261.03 29.95 C267.62 26.63 274.21 23.31 280.81 19.99 C284.77 18 288.72 16.01 292.68 14.01 C296.54 12.06 300.41 10.11 304.28 8.17 C305.75 7.43 307.22 6.69 308.68 5.95 C310.71 4.92 312.75 3.9 314.78 2.88 C315.94 2.3 317.1 1.72 318.29 1.12 C319.18 0.75 320.08 0.38 321 0 C321.66 0.33 322.32 0.66 323 1 C323 55.78 323 110.56 323 167 C242.23 167.04 242.23 167.04 208.59 167.05 C200.89 167.05 193.18 167.05 185.48 167.05 C184.03 167.06 184.03 167.06 182.56 167.06 C166.95 167.06 151.34 167.07 135.74 167.08 C119.73 167.09 103.73 167.09 87.72 167.09 C77.84 167.1 67.96 167.1 58.07 167.11 C51.3 167.11 44.53 167.11 37.77 167.11 C33.86 167.11 29.95 167.11 26.03 167.12 C21.8 167.12 17.57 167.12 13.34 167.12 C11.47 167.12 11.47 167.12 9.56 167.13 C8.43 167.13 7.31 167.13 6.15 167.12 C5.17 167.12 4.2 167.12 3.19 167.12 C1 167 1 167 0 166 C-0.1 163.86 -0.12 161.72 -0.12 159.58 C-0.12 158.56 -0.12 158.56 -0.12 157.52 C-0.12 155.23 -0.12 152.94 -0.11 150.65 C-0.11 149.01 -0.11 147.38 -0.11 145.74 C-0.11 141.29 -0.11 136.83 -0.1 132.38 C-0.1 127.73 -0.09 123.08 -0.09 118.43 C-0.09 109.62 -0.08 100.81 -0.07 91.99 C-0.06 81.97 -0.06 71.94 -0.05 61.91 C-0.04 41.27 -0.02 20.64 0 0 Z " fill="#FCFDFF" transform="translate(484,405)"/>
<path d="M0 0 C0.97 0 1.94 0 2.93 0 C4.05 -0 5.16 -0.01 6.31 -0.01 C8.16 -0.01 8.16 -0.01 10.05 0 C11.36 -0 12.66 -0 14 -0.01 C17.63 -0.01 21.26 -0.01 24.89 0 C28.8 0.01 32.72 0 36.63 0 C44.29 -0 51.96 0 59.62 0.01 C68.54 0.02 77.46 0.02 86.38 0.02 C102.28 0.02 118.19 0.03 134.09 0.04 C149.55 0.06 165 0.06 180.45 0.06 C181.88 0.06 181.88 0.06 183.33 0.06 C184.28 0.06 185.23 0.06 186.21 0.06 C203.78 0.06 221.35 0.07 238.91 0.08 C245.14 0.08 251.36 0.08 257.59 0.08 C265.16 0.08 272.74 0.09 280.32 0.1 C284.19 0.1 288.06 0.1 291.93 0.1 C296.12 0.1 300.3 0.11 304.49 0.12 C305.73 0.11 306.96 0.11 308.24 0.11 C309.91 0.12 309.91 0.12 311.61 0.12 C313.06 0.12 313.06 0.12 314.54 0.12 C316.71 0.25 316.71 0.25 317.71 1.25 C317.85 3.92 317.75 6.57 317.71 9.25 C306.62 15.21 295.44 20.88 284.06 26.28 C276.52 29.85 269.04 33.54 261.59 37.3 C259.65 38.28 257.71 39.24 255.77 40.2 C249 43.56 242.3 46.99 235.64 50.56 C226.96 55.21 218.08 59.42 209.18 63.64 C204.77 65.74 200.38 67.87 196.02 70.06 C195.42 70.36 194.83 70.66 194.22 70.96 C190.32 72.91 186.45 74.9 182.59 76.92 C180.06 78.23 177.53 79.53 174.99 80.83 C173.73 81.48 172.47 82.14 171.21 82.8 C169.43 83.74 167.64 84.65 165.86 85.57 C164.82 86.11 163.78 86.65 162.7 87.2 C158.07 88.82 154.98 87.86 150.65 85.79 C149.53 85.16 148.42 84.53 147.27 83.87 C141.01 80.39 134.62 77.25 128.14 74.19 C116.07 68.46 104.1 62.51 92.15 56.52 C89.98 55.43 87.81 54.35 85.64 53.26 C79.99 50.44 74.35 47.61 68.7 44.78 C62.98 41.92 57.26 39.05 51.54 36.19 C43.14 31.98 34.74 27.78 26.34 23.57 C17.46 19.13 8.59 14.69 -0.29 10.25 C-1.63 9.58 -2.96 8.92 -4.29 8.25 C-4.42 5.37 -4.42 5.37 -4.29 2.25 C-2.29 0.25 -2.29 0.25 0 0 Z " fill="#FCFDFF" transform="translate(488.29268366098404,363.7504523396492)"/>
<path d="M0 0 C11.61 9.79 17.78 22.08 19.41 37.06 C20.52 52.59 17.49 67.19 7.28 79.19 C-2.66 89.66 -14.35 96.69 -29 97.3 C-44.43 97.64 -55.86 95.28 -68.59 86.06 C-69.49 85.45 -69.49 85.45 -70.4 84.82 C-79.17 78.25 -85.05 65.72 -86.59 55.06 C-87.69 37.91 -84.55 21.76 -73.2 8.2 C-54.22 -11.5 -22.74 -16.99 0 0 Z " fill="#030406" transform="translate(1004.59375,663.9375)"/>
<path d="M0 0 C10.86 10.08 16.06 24.18 17.03 38.71 C17.54 53.24 14.1 66.58 4.56 77.62 C-5.43 88.16 -17.21 95.01 -31.92 95.71 C-50.14 96.04 -63.89 91.61 -77.48 79.04 C-86.75 69.66 -89.42 55.87 -89.44 43.17 C-89.18 27.96 -82.94 14.59 -72.53 3.66 C-52.45 -15.44 -21.97 -16.8 0 0 Z " fill="#030406" transform="translate(456.125,665.625)"/>
<path d="M0 0 C6.71 6 9.58 11.9 10.31 20.81 C10.72 30.29 9.99 37.45 3.58 44.76 C1.13 47.3 -1.29 49.74 -4 52 C-4.66 52 -5.32 52 -6 52 C-4 56.34 -2 60.67 0 65 C0.44 65.96 0.44 65.96 0.89 66.93 C4.71 75.19 8.58 83.41 12.81 91.47 C14.24 94.22 15 95.84 15 99 C14.67 98.67 14.34 98.34 14 98 C12.49 98.01 10.99 98.08 9.48 98.18 C8.56 98.22 7.64 98.26 6.69 98.3 C4.74 98.39 2.8 98.51 0.86 98.65 C-5.93 98.88 -5.93 98.88 -8.55 96.73 C-10 94.56 -10.98 92.4 -12 90 C-12.52 88.87 -13.04 87.74 -13.57 86.58 C-15.37 82.64 -17.06 78.67 -18.75 74.69 C-19.34 73.3 -19.94 71.92 -20.54 70.54 C-24.8 60.6 -24.8 60.6 -26 57 C-27.81 57.14 -29.63 57.29 -31.44 57.44 C-32.45 57.52 -33.46 57.6 -34.5 57.68 C-36.94 57.73 -36.94 57.73 -38 59 C-38.16 61.81 -38.26 64.6 -38.32 67.41 C-38.34 68.25 -38.36 69.09 -38.38 69.96 C-38.44 72.66 -38.5 75.36 -38.56 78.06 C-38.61 79.89 -38.65 81.71 -38.69 83.54 C-38.8 88.03 -38.9 92.51 -39 97 C-42.15 97.03 -45.29 97.05 -48.44 97.06 C-49.34 97.07 -50.23 97.08 -51.16 97.09 C-52.44 97.09 -52.44 97.09 -53.75 97.1 C-54.54 97.1 -55.33 97.11 -56.14 97.11 C-58 97 -58 97 -59 96 C-59.11 92.88 -59.15 89.77 -59.15 86.65 C-59.15 85.66 -59.15 84.68 -59.16 83.67 C-59.16 80.41 -59.17 77.14 -59.17 73.88 C-59.17 71.62 -59.17 69.36 -59.18 67.1 C-59.18 62.36 -59.19 57.62 -59.19 52.88 C-59.19 46.79 -59.2 40.71 -59.22 34.62 C-59.23 29.95 -59.23 25.29 -59.23 20.62 C-59.23 18.38 -59.23 16.13 -59.24 13.89 C-59.25 10.75 -59.25 7.62 -59.24 4.48 C-59.25 3.55 -59.25 2.61 -59.26 1.65 C-59.26 0.8 -59.25 -0.05 -59.25 -0.93 C-59.25 -1.67 -59.25 -2.42 -59.25 -3.18 C-59 -5 -59 -5 -57 -7 C-40.02 -10.49 -14.33 -10.97 0 0 Z " fill="#030406" transform="translate(690,662)"/>
<path d="M0 0 C6.09 6.32 8.45 14.38 8.76 23.01 C8.43 31.77 6.4 38.72 0.2 45.07 C-2.05 47.14 -4.18 48.81 -6.74 50.51 C-6.1 55.14 -4.23 59.05 -2.21 63.22 C-1.86 63.96 -1.51 64.69 -1.15 65.44 C-0.04 67.78 1.08 70.11 2.2 72.45 C3.32 74.77 4.43 77.1 5.54 79.43 C6.23 80.88 6.92 82.33 7.62 83.77 C9.07 86.82 10.33 89.71 11.37 92.94 C11.98 95.66 11.98 95.66 14.26 96.51 C13.27 96.51 12.28 96.51 11.26 96.51 C9.74 96.54 8.22 96.58 6.7 96.61 C4.89 96.64 3.07 96.67 1.26 96.7 C0.35 96.72 -0.57 96.75 -1.51 96.77 C-2.83 96.79 -2.83 96.79 -4.18 96.8 C-4.98 96.82 -5.78 96.83 -6.61 96.85 C-9.31 96.42 -9.97 95.55 -11.74 93.51 C-12.7 91.79 -12.7 91.79 -13.53 89.88 C-14.01 88.8 -14.01 88.8 -14.49 87.7 C-14.82 86.94 -15.15 86.17 -15.5 85.38 C-15.84 84.58 -16.19 83.79 -16.55 82.97 C-17.66 80.45 -18.76 77.91 -19.86 75.38 C-20.97 72.84 -22.08 70.31 -23.2 67.77 C-23.89 66.19 -24.58 64.61 -25.26 63.03 C-26.6 59.52 -26.6 59.52 -28.74 56.51 C-30.4 56.41 -32.07 56.38 -33.74 56.38 C-34.65 56.38 -35.55 56.38 -36.49 56.38 C-38.71 56.26 -38.71 56.26 -39.74 57.51 C-39.9 60.32 -40 63.11 -40.05 65.92 C-40.08 66.76 -40.1 67.6 -40.12 68.47 C-40.18 71.17 -40.24 73.87 -40.3 76.57 C-40.34 78.4 -40.39 80.22 -40.43 82.05 C-40.54 86.54 -40.64 91.02 -40.74 95.51 C-47.34 95.51 -53.94 95.51 -60.74 95.51 C-60.78 82.24 -60.82 68.98 -60.84 55.71 C-60.85 49.56 -60.87 43.4 -60.89 37.24 C-60.91 31.3 -60.92 25.36 -60.93 19.42 C-60.93 17.15 -60.94 14.88 -60.95 12.61 C-60.96 9.44 -60.97 6.27 -60.97 3.1 C-60.97 2.15 -60.98 1.2 -60.99 0.23 C-60.98 -0.63 -60.98 -1.49 -60.98 -2.38 C-60.98 -3.13 -60.98 -3.88 -60.98 -4.65 C-60.74 -6.49 -60.74 -6.49 -58.74 -8.49 C-40.87 -12.17 -14.49 -12.44 0 0 Z " fill="#030406" transform="translate(576.73828125,663.4921875)"/>
<path d="M0 0 C1.23 2.46 1.21 4.26 1.32 7.01 C1.36 7.99 1.4 8.98 1.44 10 C1.48 11.03 1.52 12.06 1.56 13.12 C1.61 14.17 1.65 15.21 1.69 16.28 C1.8 18.85 1.9 21.43 2 24 C1.34 24 0.68 24 0 24 C0 23.34 0 22.68 0 22 C-11.77 16.9 -24.48 13.95 -37 18 C-46.19 21.65 -50.25 25.82 -54.17 34.82 C-57.92 44.65 -57.46 58.14 -53.26 67.73 C-49.52 74.46 -44.59 79.3 -37.06 81.59 C-26.38 83.72 -12.27 83.45 -2.86 77.69 C-1.19 76.53 0.42 75.27 2 74 C4.25 76.25 3.33 81.29 3.38 84.31 C3.41 85.18 3.45 86.05 3.49 86.94 C3.58 93.39 3.58 93.39 0.65 96.5 C-0.23 97 -1.1 97.49 -2 98 C-2.91 98.54 -3.81 99.07 -4.75 99.62 C-17.85 105.17 -35.95 105.26 -49.18 100.32 C-61.71 94.45 -71 86.1 -76 73 C-81.41 56.85 -80.46 39.45 -73.64 23.91 C-67.1 11.14 -57.99 3.81 -44.62 -1.19 C-29.75 -5.8 -14.65 -4.88 0 0 Z " fill="#030406" transform="translate(328,658)"/>
<path d="M0 0 C0 6.27 0 12.54 0 19 C-2.44 18.99 -4.89 18.98 -7.4 18.96 C-9.76 18.96 -12.12 18.95 -14.47 18.95 C-16.11 18.94 -17.76 18.93 -19.4 18.92 C-21.75 18.91 -24.11 18.91 -26.46 18.9 C-27.57 18.89 -27.57 18.89 -28.7 18.89 C-30.47 18.89 -32.23 18.94 -34 19 C-35.44 20.21 -35.44 20.21 -35.1 23.82 C-35.09 25.4 -35.08 26.98 -35.06 28.56 C-35.06 29.37 -35.05 30.18 -35.05 31.01 C-35.04 33 -35.02 35 -35 37 C-33.83 37.04 -33.83 37.04 -32.63 37.08 C-29.11 37.19 -25.58 37.31 -22.06 37.44 C-20.83 37.48 -19.6 37.52 -18.33 37.56 C-16.58 37.62 -16.58 37.62 -14.79 37.68 C-13.16 37.74 -13.16 37.74 -11.5 37.79 C-9 38 -9 38 -8 39 C-7.84 40.34 -7.75 41.69 -7.68 43.04 C-7.64 43.84 -7.6 44.65 -7.56 45.49 C-7.52 46.34 -7.48 47.19 -7.44 48.06 C-7.39 48.92 -7.35 49.77 -7.31 50.65 C-7.2 52.77 -7.1 54.88 -7 57 C-7.81 57.03 -8.63 57.05 -9.46 57.08 C-13.12 57.19 -16.78 57.31 -20.44 57.44 C-21.72 57.48 -23 57.52 -24.31 57.56 C-25.53 57.6 -26.74 57.64 -28 57.68 C-29.68 57.74 -29.68 57.74 -31.41 57.79 C-33.93 57.71 -33.93 57.71 -35 59 C-35.09 60.85 -35.11 62.71 -35.1 64.57 C-35.1 65.58 -35.09 66.59 -35.09 67.64 C-35.08 68.93 -35.07 70.23 -35.06 71.56 C-35.04 75.67 -35.02 79.77 -35 84 C-16.68 84.5 -16.68 84.5 2 85 C2 90.94 2 96.88 2 103 C-17.14 103 -36.28 103 -56 103 C-57.68 99.64 -57.14 95.84 -57.13 92.15 C-57.13 91.23 -57.13 90.31 -57.13 89.37 C-57.14 86.32 -57.14 83.28 -57.13 80.23 C-57.13 78.12 -57.13 76.01 -57.14 73.9 C-57.14 69.46 -57.14 65.03 -57.13 60.59 C-57.12 54.91 -57.13 49.23 -57.13 43.55 C-57.14 39.18 -57.14 34.82 -57.13 30.45 C-57.13 28.35 -57.13 26.26 -57.14 24.17 C-57.14 21.23 -57.13 18.3 -57.13 15.37 C-57.13 14.51 -57.13 13.64 -57.14 12.75 C-57.12 8.39 -56.88 4.3 -56 0 C-48.83 -0.17 -41.66 -0.33 -34.49 -0.48 C-32.05 -0.54 -29.61 -0.59 -27.17 -0.65 C-23.66 -0.73 -20.15 -0.81 -16.64 -0.88 C-15.01 -0.92 -15.01 -0.92 -13.34 -0.96 C-12.32 -0.98 -11.3 -1 -10.25 -1.02 C-9.35 -1.04 -8.46 -1.06 -7.54 -1.08 C-5 -1 -5 -1 0 0 Z " fill="#030406" transform="translate(803,656)"/>
<path d="M0 0 C8.34 5.7 13.13 13.13 15.5 22.88 C17.33 34.27 16.97 45.76 10.12 55.38 C4.34 62.39 -1.7 65.34 -10.74 66.29 C-22.65 66.66 -31.04 62.73 -40 55 C-45.92 48.48 -47.36 39.13 -47 30.56 C-45.83 20.19 -42.31 9.76 -34 3 C-23.56 -3.43 -11.36 -5.88 0 0 Z " fill="#FCFDFF" transform="translate(435,676)"/>
<path d="M0 0 C7.17 4.55 12.17 12.01 14.38 20.19 C16.39 31.92 16.21 44.31 9.25 54.31 C4.29 60.37 -1.09 64 -9 65 C-20.45 65.96 -29.38 63.5 -38.51 56.42 C-45.31 49.81 -47.87 41.55 -48.16 32.23 C-47.65 22.14 -44.33 11.51 -37.18 4.12 C-25.98 -4.91 -12.77 -7 0 0 Z " fill="#FCFDFF" transform="translate(987,677)"/>
<path d="M0 0 C1.26 -0.01 2.52 -0.02 3.82 -0.03 C5.2 -0.03 6.58 -0.04 7.96 -0.04 C9.38 -0.05 10.79 -0.05 12.21 -0.06 C15.18 -0.07 18.15 -0.08 21.12 -0.08 C24.92 -0.08 28.71 -0.11 32.51 -0.14 C35.43 -0.16 38.36 -0.16 41.29 -0.16 C42.69 -0.17 44.09 -0.17 45.48 -0.19 C47.45 -0.2 49.41 -0.2 51.37 -0.2 C52.49 -0.2 53.6 -0.2 54.75 -0.21 C59 0.29 62.33 1.81 65.56 4.63 C68.82 8.97 69.53 12.46 69.24 17.86 C68.59 21.99 66.96 24.21 63.88 26.91 C60.1 29.27 56.88 29.31 52.52 29.37 C51.2 29.39 49.88 29.41 48.53 29.43 C47.09 29.44 45.65 29.46 44.21 29.47 C43.12 29.48 43.12 29.48 42.01 29.49 C38.16 29.52 34.32 29.55 30.47 29.57 C27.29 29.58 24.12 29.62 20.94 29.67 C17.1 29.73 13.26 29.76 9.42 29.77 C7.96 29.78 6.5 29.8 5.04 29.83 C-2.54 29.97 -8.73 30.05 -14.71 24.84 C-18.13 20.76 -18.58 17.45 -18.12 12.16 C-16.23 6.9 -13.52 4.37 -9.12 1.16 C-5.86 0.07 -3.44 0.02 0 0 Z " fill="#030406" transform="translate(356.120361328125,365.8388671875)"/>
<path d="M0 0 C0.78 0 1.56 0.01 2.36 0.01 C3.21 0.01 4.05 0.02 4.93 0.02 C5.81 0.03 6.7 0.04 7.61 0.06 C8.5 0.06 9.38 0.06 10.3 0.06 C16.9 0.1 16.9 0.1 18.04 1.24 C18.14 4.41 18.17 7.55 18.16 10.72 C18.16 11.71 18.16 12.71 18.16 13.73 C18.16 17.04 18.15 20.35 18.14 23.65 C18.14 25.94 18.14 28.22 18.14 30.51 C18.13 36.54 18.12 42.57 18.11 48.59 C18.1 54.74 18.1 60.89 18.09 67.03 C18.08 79.1 18.07 91.17 18.04 103.24 C14.57 103.27 11.09 103.29 7.61 103.31 C6.12 103.32 6.12 103.32 4.6 103.33 C3.65 103.33 2.71 103.34 1.74 103.34 C0.86 103.35 -0.01 103.35 -0.91 103.36 C-2.96 103.24 -2.96 103.24 -3.96 102.24 C-4.06 99.15 -4.1 96.08 -4.1 92.98 C-4.1 92.01 -4.11 91.04 -4.11 90.04 C-4.12 86.8 -4.12 83.57 -4.12 80.34 C-4.13 78.1 -4.13 75.87 -4.13 73.63 C-4.14 68.94 -4.14 64.25 -4.14 59.55 C-4.14 53.53 -4.15 47.5 -4.17 41.47 C-4.18 36.85 -4.18 32.23 -4.18 27.61 C-4.19 25.39 -4.19 23.17 -4.2 20.94 C-4.21 17.84 -4.2 14.74 -4.2 11.63 C-4.2 10.71 -4.21 9.78 -4.22 8.83 C-4.21 7.98 -4.21 7.14 -4.2 6.27 C-4.2 5.17 -4.2 5.17 -4.2 4.05 C-3.83 1.31 -2.71 0.34 0 0 Z " fill="#030406" transform="translate(854.955322265625,655.757080078125)"/>
<path d="M0 0 C2.14 -0 4.29 -0.02 6.43 -0.04 C7.81 -0.04 9.18 -0.04 10.56 -0.05 C12.42 -0.05 12.42 -0.05 14.32 -0.06 C19.36 0.3 22.69 1.24 26.53 4.56 C30.37 9.03 31.19 12.21 31.03 18.01 C30.55 22.18 28.58 24.37 25.73 27.29 C21.68 29.89 18.48 29.76 13.76 29.72 C12.46 29.72 12.46 29.72 11.13 29.73 C9.3 29.73 7.47 29.72 5.65 29.71 C2.86 29.69 0.07 29.71 -2.71 29.73 C-4.5 29.73 -6.28 29.72 -8.06 29.72 C-9.3 29.73 -9.3 29.73 -10.57 29.74 C-17.18 29.63 -20.76 27.51 -25.59 22.94 C-27.75 19.28 -28.09 16.26 -27.22 12.19 C-25.03 7.16 -22.35 3.42 -17.22 1.19 C-11.72 -0.6 -5.72 -0 0 0 Z " fill="#030406" transform="translate(746.216796875,511.814697265625)"/>
<path d="M0 0 C1.2 -0 1.2 -0 2.43 -0.01 C4.11 -0.01 5.8 -0.01 7.48 0.01 C10.05 0.02 12.63 0.01 15.2 -0.01 C16.84 -0.01 18.48 -0.01 20.12 0 C21.27 -0.01 21.27 -0.01 22.44 -0.02 C26.98 0.04 29.88 0.61 33.5 3.4 C37.89 8.4 38.84 11.3 38.79 17.85 C38.37 21.52 36.9 23.65 34.5 26.4 C31.46 28.42 30.82 28.65 27.41 28.7 C26.59 28.72 25.78 28.74 24.93 28.75 C24.05 28.76 23.17 28.76 22.26 28.77 C20.89 28.78 20.89 28.78 19.5 28.8 C17.57 28.81 15.64 28.82 13.71 28.82 C10.77 28.84 7.83 28.88 4.89 28.94 C3.02 28.95 1.14 28.95 -0.74 28.96 C-2.05 28.99 -2.05 28.99 -3.38 29.02 C-9.67 28.97 -12.78 27.58 -17.5 23.4 C-19.99 18.74 -19.87 14.39 -18.5 9.4 C-14.36 1.26 -8.45 -0.07 0 0 Z " fill="#030406" transform="translate(386.50390625,424.6015625)"/>
<path d="M0 0 C5.86 4.38 8.02 10.98 9.69 17.81 C10.8 29.13 10.18 40.15 4 50 C1.21 52.79 -1.15 53.93 -5.15 54.08 C-9.19 53.84 -11.46 53.41 -14.75 50.94 C-22.37 40.99 -24.82 32.91 -23.54 20.25 C-22.29 12.73 -20.29 5.76 -14 1 C-9.59 -1.7 -4.83 -1.58 0 0 Z " fill="#FCFDFF" transform="translate(416,855)"/>
<path d="M0 0 C4.27 1.49 6.56 4.02 9.01 7.7 C10.55 20.7 10.55 20.7 6.95 25.45 C1.52 29.61 -4.12 29.96 -10.8 29.89 C-12.11 29.88 -13.41 29.87 -14.76 29.87 C-17.99 29.7 -17.99 29.7 -19.99 28.7 C-20.1 24.26 -20.18 19.83 -20.24 15.39 C-20.27 14.12 -20.31 12.86 -20.34 11.56 C-20.35 10.35 -20.37 9.14 -20.38 7.9 C-20.4 6.78 -20.42 5.67 -20.44 4.52 C-19.99 1.7 -19.99 1.7 -18.09 -0.17 C-12.76 -3.04 -5.65 -1.39 0 0 Z " fill="#FCFDFF" transform="translate(670.98828125,673.30078125)"/>
<path d="M0 0 C5.51 1.36 8.11 4.7 11.19 9.31 C11.49 12.05 11.49 12.05 11.5 15.19 C11.52 16.22 11.53 17.24 11.55 18.3 C11.14 21.72 10.21 23.56 8.19 26.31 C2.79 30.19 -1.93 30.47 -8.44 30.44 C-9.12 30.44 -9.8 30.45 -10.5 30.45 C-15.56 30.44 -15.56 30.44 -17.81 29.31 C-17.9 24.88 -17.95 20.44 -18 16 C-18.03 14.74 -18.05 13.47 -18.08 12.17 C-18.09 10.97 -18.1 9.76 -18.11 8.51 C-18.13 6.84 -18.13 6.84 -18.15 5.13 C-17.81 2.31 -17.81 2.31 -16.43 0.45 C-12.13 -2.57 -4.9 -0.85 0 0 Z " fill="#FCFDFF" transform="translate(553.8125,672.6875)"/>
<path d="M0 0 C1.78 0.01 1.78 0.01 3.6 0.02 C6.52 0.17 9.1 0.53 11.94 1.19 C12.68 1.32 13.42 1.45 14.18 1.58 C19.24 2.55 22.99 3.69 26.94 7.19 C33.42 16.73 34.27 26.63 32.51 37.93 C30.92 43.58 27.7 47.75 22.94 51.19 C20.71 51.88 20.71 51.88 18.94 52.19 C19.21 51.66 19.49 51.13 19.78 50.58 C20.14 49.87 20.5 49.17 20.88 48.44 C21.23 47.74 21.59 47.05 21.96 46.33 C24.55 40.63 24.23 34.71 24.31 28.56 C24.35 27.52 24.39 26.48 24.43 25.4 C24.51 18.23 23.56 11.92 18.94 6.19 C14.86 4.12 11.17 3.82 6.62 3.56 C4.74 3.45 4.74 3.45 2.82 3.34 C1.87 3.29 0.92 3.24 -0.06 3.19 C-0.89 6.07 -1.19 8.64 -1.19 11.63 C-1.2 12.5 -1.2 13.37 -1.2 14.27 C-1.2 15.2 -1.2 16.14 -1.2 17.1 C-1.2 18.06 -1.2 19.03 -1.2 20.02 C-1.2 22.05 -1.2 24.09 -1.19 26.12 C-1.19 29.24 -1.19 32.36 -1.2 35.48 C-1.2 37.46 -1.2 39.43 -1.2 41.41 C-1.2 42.34 -1.2 43.28 -1.2 44.24 C-1.2 45.11 -1.2 45.98 -1.19 46.87 C-1.19 47.63 -1.19 48.4 -1.19 49.18 C-1.14 51.4 -1.14 51.4 -0.06 54.19 C-4.68 54.52 -9.3 54.85 -14.06 55.19 C-14.06 54.86 -14.06 54.53 -14.06 54.19 C-12.41 54.19 -10.76 54.19 -9.06 54.19 C-9.39 37.36 -9.72 20.53 -10.06 3.19 C-11.05 2.86 -12.04 2.53 -13.06 2.19 C-8.55 0.44 -4.83 -0.06 0 0 Z " fill="#030406" transform="translate(626.0625,852.8125)"/>
<path d="M0 0 C4.82 4.29 9.37 10.92 10.01 17.52 C10.73 38.25 10.73 38.25 4.81 45.5 C1.56 48.94 -1.81 51.64 -6.19 53.5 C-8.44 53.12 -8.44 53.12 -10.19 52.5 C-9.3 52.23 -8.41 51.96 -7.5 51.69 C-1.76 47.9 0.11 41.52 1.62 35 C1.72 33.27 1.72 33.27 1.81 31.5 C1.86 30.69 1.91 29.88 1.96 29.05 C2.31 19.47 0.95 9.5 -5.38 1.94 C-8.13 -0.25 -10.54 -0.65 -14 -0.76 C-17.16 -0.39 -19.5 0.86 -22.19 2.5 C-22.85 2.5 -23.51 2.5 -24.19 2.5 C-24.88 4.16 -25.54 5.83 -26.19 7.5 C-26.44 8.12 -26.69 8.74 -26.95 9.38 C-30.98 20.09 -31.13 30.75 -27.19 41.5 C-25.24 45.47 -22.41 48.5 -19.19 51.5 C-22.19 52.5 -22.19 52.5 -24.31 51.68 C-31.28 47.75 -35.3 44 -37.64 36.21 C-39.72 25.81 -38.62 15.58 -32.95 6.52 C-30.68 3.55 -28.9 2.01 -25.19 1.5 C-24.53 0.84 -23.87 0.18 -23.19 -0.5 C-15 -4.37 -8.05 -3.79 0 0 Z " fill="#030406" transform="translate(423.1875,855.5)"/>
<path d="M0 0 C0.66 0.99 1.32 1.98 2 3 C2.39 3.58 2.77 4.16 3.18 4.77 C4.51 6.79 5.82 8.83 7.12 10.88 C10.02 15.4 12.93 19.92 15.94 24.38 C16.4 25.06 16.86 25.75 17.34 26.45 C18.22 27.75 19.11 29.06 20 30.35 C23 34.78 23 34.78 23 37 C23.99 36.67 24.98 36.34 26 36 C26.33 25.11 26.66 14.22 27 3 C25.02 2.34 23.04 1.68 21 1 C21.66 0.34 22.32 -0.32 23 -1 C25.6 -0.98 25.6 -0.98 28.62 -0.62 C29.62 -0.51 30.63 -0.4 31.66 -0.29 C32.82 -0.15 32.82 -0.15 34 0 C33.04 0.4 33.04 0.4 32.06 0.81 C29.66 1.89 29.66 1.89 29 5 C28.92 7.51 28.9 9.99 28.93 12.49 C28.94 13.23 28.94 13.98 28.95 14.74 C28.96 17.9 28.99 21.07 29.02 24.23 C29.09 33.89 28.95 43.38 28 53 C24.64 51.61 23.15 50.19 21.22 47.13 C20.71 46.34 20.2 45.54 19.68 44.73 C19.15 43.87 18.61 43.01 18.06 42.12 C16.91 40.32 15.76 38.51 14.61 36.7 C14.01 35.76 13.42 34.83 12.81 33.86 C9.85 29.2 6.83 24.57 3.81 19.94 C2.73 18.28 1.65 16.62 0.58 14.96 C-0.94 12.63 -2.46 10.31 -4 8 C-4 21.86 -4 35.72 -4 50 C-2.35 50.66 -0.7 51.32 1 52 C1 52.33 1 52.66 1 53 C-3.95 53 -8.9 53 -14 53 C-14 52.67 -14 52.34 -14 52 C-12.35 52 -10.7 52 -9 52 C-9 35.17 -9 18.34 -9 1 C-10.32 0.67 -11.64 0.34 -13 0 C-11.37 -1.64 -9.44 -1.55 -7.19 -1.88 C-5.88 -2.09 -5.88 -2.09 -4.55 -2.3 C-2 -2 -2 -2 0 0 Z " fill="#030406" transform="translate(560.00390625,855)"/>
<path d="M0 0 C5.29 0.1 5.29 0.1 7.73 2.55 C8.25 3.37 8.77 4.19 9.3 5.04 C9.89 5.94 10.48 6.85 11.09 7.79 C11.68 8.75 12.27 9.7 12.88 10.69 C13.45 11.6 14.03 12.51 14.63 13.44 C16.99 17.16 19.31 20.9 21.62 24.65 C25.27 30.47 29.17 35.68 33.88 40.69 C33.54 40.03 33.22 39.37 32.88 38.69 C32.72 35.99 32.62 33.32 32.56 30.62 C32.54 29.82 32.52 29.02 32.5 28.2 C32.43 25.66 32.37 23.11 32.31 20.56 C32.27 18.84 32.23 17.11 32.18 15.39 C32.07 11.15 31.97 6.92 31.88 2.69 C30.55 2.36 29.24 2.03 27.88 1.69 C28.88 0.69 28.88 0.69 31.6 0.59 C33.25 0.61 33.25 0.61 34.94 0.62 C36.59 0.64 36.59 0.64 38.29 0.65 C39.14 0.66 39.99 0.68 40.88 0.69 C41.37 1.68 41.37 1.68 41.88 2.69 C40.23 3.02 38.58 3.35 36.88 3.69 C36.84 5.37 36.84 5.37 36.8 7.08 C36.7 11.28 36.6 15.49 36.5 19.69 C36.46 21.5 36.42 23.31 36.38 25.12 C36.16 35.01 35.9 44.84 34.88 54.69 C30.9 53.18 29.41 50.93 27.15 47.4 C26.1 45.78 26.1 45.78 25.03 44.13 C24.29 42.96 23.55 41.79 22.81 40.62 C22.05 39.44 21.29 38.26 20.53 37.08 C19.02 34.73 17.51 32.37 16 30.01 C13.6 26.26 11.18 22.52 8.75 18.78 C6.79 15.76 4.83 12.72 2.88 9.69 C1.61 13.47 1.71 17.03 1.71 20.97 C1.7 21.78 1.7 22.59 1.7 23.42 C1.69 25.13 1.69 26.85 1.69 28.56 C1.69 31.18 1.67 33.8 1.65 36.42 C1.65 38.08 1.65 39.74 1.64 41.41 C1.64 42.19 1.63 42.98 1.62 43.78 C1.64 47.62 1.7 49.42 3.88 52.69 C5.2 53.35 6.51 54.01 7.88 54.69 C3.25 54.69 -1.37 54.69 -6.12 54.69 C-4.14 54.19 -4.14 54.19 -2.12 53.69 C-1.17 48.87 -0.98 44.18 -0.99 39.29 C-0.99 38.5 -0.99 37.7 -0.99 36.88 C-0.99 35.21 -0.99 33.54 -0.99 31.87 C-1 29.33 -0.99 26.79 -0.99 24.25 C-0.99 22.62 -0.99 20.98 -0.99 19.35 C-0.99 18.6 -0.99 17.85 -0.99 17.08 C-1.01 12.2 -1.44 7.52 -2.12 2.69 C-3.45 2.36 -4.76 2.03 -6.12 1.69 C-4.41 -0.03 -2.35 0.2 0 0 Z " fill="#030406" transform="translate(743.125,853.3125)"/>
<path d="M0 0 C1.62 -0.03 3.25 -0.05 4.88 -0.06 C5.78 -0.07 6.68 -0.09 7.62 -0.1 C10 0 10 0 12 1 C14.57 1.1 17.11 1.14 19.69 1.12 C20.73 1.13 20.73 1.13 21.79 1.14 C25.28 1.13 28.49 0.93 31.96 0.43 C32.96 0.29 33.97 0.15 35 0 C36.89 1.89 36 5.47 36 8 C36.21 8.93 36.41 9.86 36.62 10.81 C36.81 11.9 36.81 11.9 37 13 C36.34 13.66 35.68 14.32 35 15 C35 13.68 35 12.36 35 11 C34.34 11 33.68 11 33 11 C32.01 8.69 31.02 6.38 30 4 C24.39 4 18.78 4 13 4 C11.8 6.4 11.89 7.89 11.9 10.57 C11.91 11.47 11.91 12.36 11.91 13.29 C11.92 14.22 11.93 15.16 11.94 16.12 C11.94 17.07 11.95 18.01 11.95 18.99 C11.96 21.33 11.98 23.66 12 26 C15.65 26.93 15.65 26.93 19.25 26.19 C21.15 25.11 21.15 25.11 22 23 C22.66 23 23.32 23 24 23 C24 21.68 24 20.36 24 19 C24.66 19.33 25.32 19.66 26 20 C25.74 21.26 25.74 21.26 25.47 22.54 C24.96 26.29 25.12 29.61 25.44 33.38 C25.54 34.62 25.64 35.87 25.75 37.15 C25.87 38.56 25.87 38.56 26 40 C24.15 37.63 22.77 35.53 21.44 32.81 C20.3 29.9 20.3 29.9 18 29 C15.98 29.61 13.98 30.27 12 31 C11.97 34.48 11.95 37.96 11.94 41.44 C11.93 42.43 11.92 43.42 11.91 44.45 C11.91 45.39 11.91 46.34 11.9 47.31 C11.9 48.18 11.89 49.06 11.89 49.96 C11.77 51.99 11.77 51.99 13 53 C15.23 53.15 17.46 53.22 19.69 53.25 C20.91 53.28 22.13 53.3 23.39 53.33 C27.34 52.97 29.7 52.19 33 50 C34.12 48.01 34.12 48.01 34.38 45.81 C34.58 44.55 34.79 43.3 35 42 C35.99 42 36.98 42 38 42 C37.99 42.77 37.98 43.54 37.96 44.34 C37.96 45.34 37.95 46.34 37.94 47.38 C37.93 48.37 37.91 49.37 37.9 50.4 C37.82 52.98 37.82 52.98 39 55 C25.8 55 12.6 55 -1 55 C0.32 54.01 1.64 53.02 3 52 C3.6 49.83 3.6 49.83 3.5 47.38 C3.51 46.44 3.52 45.51 3.53 44.55 C3.51 43.04 3.51 43.04 3.5 41.5 C3.5 40.46 3.5 39.43 3.5 38.36 C3.5 36.18 3.49 33.99 3.47 31.8 C3.44 28.45 3.45 25.09 3.46 21.74 C3.45 19.61 3.44 17.49 3.43 15.37 C3.44 14.36 3.44 13.35 3.44 12.32 C3.43 11.38 3.42 10.45 3.4 9.49 C3.4 8.67 3.39 7.85 3.39 7 C3.26 6.34 3.13 5.68 3 5 C2.01 4.34 1.02 3.68 0 3 C0 2.01 0 1.02 0 0 Z " fill="#030406" transform="translate(680,853)"/>
<path d="M0 0 C0.33 0.33 0.66 0.66 1 1 C3.74 1.1 6.45 1.14 9.19 1.12 C10.32 1.13 10.32 1.13 11.48 1.14 C15.78 1.13 19.75 0.73 24 0 C25.88 1.88 25.39 5.04 25.56 7.56 C25.65 8.76 25.73 9.96 25.82 11.19 C25.88 12.12 25.94 13.05 26 14 C25.34 14 24.68 14 24 14 C23.8 13.45 23.59 12.89 23.38 12.32 C23.11 11.6 22.84 10.87 22.56 10.12 C22.3 9.41 22.03 8.69 21.75 7.95 C21.02 5.96 21.02 5.96 20 4 C14.06 3.67 8.12 3.34 2 3 C1.31 6.46 0.87 8.99 0.87 12.39 C0.87 13.18 0.86 13.97 0.86 14.79 C0.87 15.6 0.87 16.41 0.88 17.25 C0.87 18.08 0.87 18.91 0.86 19.76 C0.48 23.69 0.48 23.69 2 27 C6.07 26.81 6.07 26.81 10 26 C11.59 24.08 11.59 24.08 12 22 C12.66 22 13.32 22 14 22 C14 21.01 14 20.02 14 19 C14.66 19.33 15.32 19.66 16 20 C15.84 20.5 15.67 20.99 15.5 21.5 C14.56 26.19 14.76 30.71 15.62 35.38 C15.75 36.24 15.87 37.11 16 38 C15.34 38.66 14.68 39.32 14 40 C13.8 39.36 13.59 38.72 13.38 38.07 C13.11 37.24 12.84 36.41 12.56 35.56 C12.3 34.74 12.03 33.92 11.75 33.07 C11.18 31.04 11.18 31.04 10 30 C8.47 30.09 6.95 30.25 5.44 30.44 C4.61 30.54 3.78 30.64 2.93 30.75 C1.98 30.87 1.98 30.87 1 31 C0.95 33.92 0.91 36.83 0.88 39.75 C0.86 40.58 0.84 41.4 0.82 42.25 C0.81 43.45 0.81 43.45 0.8 44.67 C0.79 45.77 0.79 45.77 0.77 46.89 C1.03 49.3 1.81 50.91 3 53 C13.11 53.83 13.11 53.83 22 50 C23.61 47.43 24.87 44.81 26 42 C26.99 42.5 26.99 42.5 28 43 C27.67 46.96 27.34 50.92 27 55 C14.46 55 1.92 55 -11 55 C-10.67 54.34 -10.34 53.68 -10 53 C-9.01 53 -8.02 53 -7 53 C-7.33 36.5 -7.66 20 -8 3 C-8.99 2.67 -9.98 2.34 -11 2 C-7.18 0.2 -4.22 -0.29 0 0 Z " fill="#030406" transform="translate(867,853)"/>
<path d="M0 0 C0.66 0.66 1.32 1.32 2 2 C1.08 2.09 1.08 2.09 0.14 2.18 C-0.67 2.27 -1.48 2.35 -2.31 2.44 C-3.11 2.52 -3.91 2.6 -4.74 2.68 C-7.16 2.95 -7.16 2.95 -10 4 C-12.28 7.24 -12.55 10.13 -12 14 C-8.52 18.67 -3.55 21.26 1.34 24.3 C6.36 27.5 10.28 30.58 13 36 C13.87 41.04 14.51 46.66 11.64 51.11 C6.98 55.27 2.34 57.11 -3.94 56.81 C-7.97 56.18 -11.33 54.76 -15 53 C-15.99 53.99 -16.98 54.98 -18 56 C-19.13 52.39 -19.1 49.02 -19.06 45.25 C-19.05 44.08 -19.04 42.91 -19.04 41.7 C-19.02 40.81 -19.01 39.92 -19 39 C-18.01 39 -17.02 39 -16 39 C-15.87 39.69 -15.73 40.37 -15.6 41.08 C-15.42 41.98 -15.24 42.88 -15.06 43.81 C-14.89 44.71 -14.71 45.6 -14.54 46.52 C-14.02 49.11 -14.02 49.11 -13 52 C-7.86 54.04 -2.51 54.76 3 54 C5.68 51.32 5.96 49.43 6.31 45.69 C5.84 40.09 3.41 37.31 -0.62 33.56 C-3.36 31.39 -6.24 29.46 -9.12 27.5 C-14.28 23.89 -17.33 21.42 -19.06 15.19 C-19.42 10.87 -17.92 8.11 -15.47 4.63 C-13.53 2.48 -11.8 1.66 -9 1 C-5.76 -0.08 -3.4 -0.22 0 0 Z " fill="#030406" transform="translate(822,853)"/>
<path d="M0 0 C1.49 0.01 2.98 0.02 4.46 0.04 C5.22 0.04 5.98 0.04 6.76 0.05 C8.64 0.06 10.52 0.08 12.4 0.1 C12.73 0.76 13.06 1.42 13.4 2.1 C11.75 2.1 10.1 2.1 8.4 2.1 C7.39 7.12 7.24 11.94 7.23 17.04 C7.23 17.88 7.23 18.73 7.22 19.6 C7.22 21.38 7.22 23.16 7.22 24.94 C7.21 27.65 7.2 30.37 7.18 33.09 C7.17 34.82 7.17 36.56 7.17 38.29 C7.16 39.1 7.16 39.91 7.15 40.74 C7.17 44.98 7.44 48.22 9.4 52.1 C19.45 52.86 19.45 52.86 28.4 49.1 C30.54 46.22 31.75 43.62 32.4 40.1 C33.06 40.1 33.72 40.1 34.4 40.1 C34.07 44.72 33.74 49.34 33.4 54.1 C20.86 54.1 8.32 54.1 -4.6 54.1 C-3.28 53.44 -1.96 52.78 -0.6 52.1 C-0.66 45.16 -0.75 38.21 -0.86 31.27 C-0.89 28.91 -0.92 26.55 -0.94 24.18 C-0.98 20.79 -1.03 17.4 -1.09 14.01 C-1.09 12.95 -1.1 11.89 -1.11 10.8 C-1.13 9.81 -1.14 8.83 -1.17 7.82 C-1.18 6.96 -1.19 6.09 -1.2 5.2 C-1.33 4.51 -1.46 3.81 -1.6 3.1 C-2.59 2.44 -3.58 1.78 -4.6 1.1 C-3.6 0.1 -3.6 0.1 0 0 Z " fill="#030406" transform="translate(458.59765625,853.90234375)"/>
<path d="M0 0 C1.58 0.01 3.16 0.02 4.75 0.04 C5.55 0.04 6.36 0.04 7.19 0.05 C9.19 0.06 11.19 0.08 13.18 0.1 C13.18 0.76 13.18 1.42 13.18 2.1 C12.54 2.22 11.9 2.35 11.25 2.47 C10.57 2.68 9.88 2.89 9.18 3.1 C8.02 5.43 8.06 6.81 8.05 9.41 C8.05 10.3 8.05 11.19 8.04 12.11 C8.05 13.07 8.05 14.04 8.05 15.03 C8.05 16.02 8.05 17.01 8.05 18.03 C8.05 20.12 8.05 22.22 8.05 24.31 C8.06 27.52 8.05 30.73 8.05 33.94 C8.05 35.97 8.05 38 8.05 40.03 C8.05 40.99 8.05 41.96 8.04 42.95 C8.05 43.84 8.05 44.74 8.05 45.66 C8.05 46.44 8.06 47.23 8.06 48.04 C8.11 50.3 8.11 50.3 9.18 53.1 C6.21 53.1 3.24 53.1 0.18 53.1 C-1.02 50.7 -0.91 49.28 -0.87 46.6 C-0.85 45.67 -0.84 44.74 -0.83 43.78 C-0.81 42.77 -0.79 41.77 -0.77 40.73 C-0.75 38.6 -0.73 36.48 -0.71 34.36 C-0.67 31.01 -0.63 27.65 -0.57 24.29 C-0.52 21.06 -0.49 17.83 -0.46 14.6 C-0.44 13.6 -0.41 12.59 -0.39 11.55 C-0.38 10.15 -0.38 10.15 -0.38 8.72 C-0.37 7.9 -0.35 7.08 -0.34 6.23 C-0.64 3.9 -0.64 3.9 -2.84 2.31 C-3.49 1.91 -4.15 1.51 -4.82 1.1 C-3.82 0.1 -3.82 0.1 0 0 Z " fill="#030406" transform="translate(514.81640625,853.90234375)"/>
<path d="M0 0 C3.3 0 6.6 0 10 0 C9.84 1.18 9.67 2.35 9.5 3.56 C9.01 7.41 8.92 11.12 9 15 C8.67 15 8.34 15 8 15 C8 13.35 8 11.7 8 10 C7.34 10 6.68 10 6 10 C3 4.25 3 4.25 3 2 C2.01 1.67 1.02 1.34 0 1 C0 0.67 0 0.34 0 0 Z " fill="#030406" transform="translate(824,855)"/>
</svg>
