<?xml version="1.0" encoding="UTF-8"?>
<!-- Generator: visioncortex VTracer 0.6.3 -->
<svg version="1.1" xmlns="http://www.w3.org/2000/svg" width="1280" height="1280">
<path d="M0 0 C1.2 -0.01 2.41 -0.01 3.65 -0.02 C4.99 -0.02 6.34 -0.01 7.68 -0.01 C9.1 -0.01 10.53 -0.02 11.95 -0.02 C15.86 -0.04 19.78 -0.04 23.7 -0.03 C27.92 -0.03 32.14 -0.04 36.36 -0.05 C44.63 -0.07 52.91 -0.08 61.18 -0.08 C67.9 -0.08 74.63 -0.08 81.35 -0.09 C100.4 -0.11 119.45 -0.12 138.49 -0.11 C139.52 -0.11 140.55 -0.11 141.61 -0.11 C142.64 -0.11 143.67 -0.11 144.73 -0.11 C161.4 -0.11 178.08 -0.13 194.76 -0.16 C211.87 -0.19 228.98 -0.2 246.09 -0.2 C255.7 -0.2 265.32 -0.21 274.93 -0.23 C283.11 -0.24 291.29 -0.25 299.48 -0.24 C303.65 -0.23 307.83 -0.23 312.01 -0.25 C315.83 -0.26 319.65 -0.26 323.47 -0.24 C324.86 -0.24 326.24 -0.24 327.63 -0.25 C329.5 -0.27 331.38 -0.25 333.26 -0.24 C334.31 -0.24 335.35 -0.24 336.43 -0.24 C340.02 0.39 341.67 1.72 344.26 4.26 C347.67 11.09 348.4 16.6 348.39 24.15 C348.39 25.06 348.4 25.97 348.4 26.9 C348.4 29.95 348.4 33 348.4 36.06 C348.41 38.24 348.41 40.42 348.41 42.61 C348.42 48.55 348.42 54.49 348.42 60.43 C348.43 65.39 348.43 70.34 348.43 75.3 C348.44 86.33 348.44 97.36 348.44 108.39 C348.44 109.38 348.44 109.38 348.44 110.4 C348.44 111.06 348.44 111.72 348.44 112.4 C348.44 122.47 348.45 132.53 348.46 142.6 C348.48 154.29 348.49 165.98 348.49 177.67 C348.49 183.86 348.49 190.05 348.5 196.23 C348.51 202.06 348.51 207.88 348.5 213.7 C348.5 215.83 348.5 217.97 348.51 220.1 C348.52 223.02 348.51 225.94 348.5 228.86 C348.51 229.7 348.51 230.54 348.52 231.41 C348.49 236.67 347.72 241.19 346.26 246.26 C345.6 246.26 344.94 246.26 344.26 246.26 C343.99 246.88 343.72 247.49 343.44 248.13 C342.26 250.26 342.26 250.26 339.26 252.26 C336.68 252.51 336.68 252.51 333.52 252.52 C332.32 252.53 331.11 252.54 329.87 252.54 C328.53 252.54 327.19 252.54 325.85 252.54 C324.42 252.54 323 252.55 321.58 252.56 C317.67 252.57 313.76 252.58 309.84 252.58 C305.63 252.58 301.41 252.6 297.19 252.61 C287.97 252.64 278.74 252.65 269.52 252.66 C263.76 252.66 258 252.67 252.24 252.68 C236.3 252.71 220.36 252.73 204.43 252.73 C203.41 252.73 202.38 252.73 201.33 252.73 C200.31 252.73 199.29 252.73 198.23 252.74 C196.16 252.74 194.09 252.74 192.02 252.74 C190.47 252.74 190.47 252.74 188.9 252.74 C172.24 252.75 155.57 252.78 138.91 252.83 C121.81 252.88 104.71 252.9 87.61 252.9 C78.01 252.9 68.4 252.92 58.8 252.95 C50.62 252.98 42.44 252.99 34.26 252.98 C30.09 252.97 25.92 252.97 21.75 253 C17.92 253.02 14.1 253.02 10.28 253 C8.9 252.99 7.52 253 6.14 253.02 C-5.44 253.15 -5.44 253.15 -9.99 249.65 C-14.95 244.39 -15.04 237.98 -15.03 231.09 C-15.03 230.29 -15.04 229.5 -15.05 228.68 C-15.07 226.03 -15.07 223.38 -15.08 220.73 C-15.09 218.82 -15.1 216.92 -15.11 215.01 C-15.14 209.84 -15.16 204.66 -15.18 199.49 C-15.2 194.04 -15.23 188.6 -15.26 183.16 C-15.3 174 -15.34 164.83 -15.38 155.67 C-15.41 145.15 -15.46 134.63 -15.52 124.11 C-15.57 113.93 -15.62 103.75 -15.66 93.57 C-15.68 89.27 -15.7 84.97 -15.72 80.67 C-15.92 42.21 -15.92 42.21 -15.37 24.83 C-15.34 23.73 -15.31 22.63 -15.28 21.49 C-15.07 16.08 -14.52 11.38 -12.74 6.26 C-12.08 6.26 -11.42 6.26 -10.74 6.26 C-10.48 5.64 -10.21 5.02 -9.93 4.38 C-7.5 0.03 -4.56 0.01 0 0 Z M16.26 29.26 C16.26 30.91 16.26 32.56 16.26 34.26 C18.37 35.96 18.37 35.96 21.26 37.26 C22.93 38.25 22.93 38.25 24.63 39.26 C27.42 40.84 30.25 42.14 33.21 43.36 C37.99 45.45 42.6 47.91 47.26 50.26 C49.84 51.55 52.42 52.84 55.01 54.13 C59.06 56.16 63.12 58.19 67.17 60.23 C74.3 63.82 81.46 67.31 88.69 70.69 C95.52 73.9 102.2 77.3 108.84 80.88 C114.85 84.1 120.98 87 127.16 89.88 C132.57 92.41 137.87 95.11 143.13 97.94 C150.72 101.99 150.72 101.99 158.38 105.88 C159.35 106.37 160.33 106.86 161.33 107.36 C166.93 109.08 171.43 107.46 176.49 104.83 C177.12 104.5 177.74 104.16 178.38 103.82 C179.79 103.09 181.2 102.36 182.61 101.63 C183.73 101.05 183.73 101.05 184.88 100.46 C189.11 98.32 193.41 96.33 197.69 94.32 C204.89 90.93 211.95 87.36 218.94 83.58 C224.92 80.38 231.03 77.5 237.17 74.63 C243.17 71.82 249.01 68.78 254.84 65.63 C260.9 62.39 267.09 59.46 273.32 56.56 C278.78 54 284.09 51.25 289.38 48.36 C295.95 44.81 302.7 41.66 309.47 38.49 C310.33 38.09 311.2 37.68 312.09 37.26 C312.87 36.9 313.65 36.54 314.45 36.16 C316.23 35.39 316.23 35.39 317.26 34.26 C317.26 32.61 317.26 30.96 317.26 29.26 C217.93 29.26 118.6 29.26 16.26 29.26 Z M16.26 68.26 C16.26 119.41 16.26 170.56 16.26 223.26 C69.55 223.29 69.55 223.29 122.85 223.31 C130.02 223.31 137.2 223.31 144.38 223.31 C145.28 223.31 146.17 223.31 147.1 223.31 C161.64 223.32 176.18 223.33 190.72 223.33 C205.63 223.34 220.54 223.35 235.45 223.35 C244.66 223.35 253.87 223.36 263.08 223.37 C269.38 223.37 275.69 223.37 281.99 223.37 C285.64 223.37 289.28 223.37 292.93 223.38 C296.87 223.38 300.81 223.38 304.75 223.38 C306.49 223.38 306.49 223.38 308.28 223.39 C309.32 223.38 310.37 223.38 311.45 223.38 C312.36 223.38 313.27 223.38 314.21 223.38 C316.25 223.48 316.25 223.48 317.26 222.26 C317.35 220.27 317.38 218.28 317.38 216.29 C317.38 214.99 317.38 213.7 317.38 212.36 C317.38 210.91 317.37 209.46 317.37 208.01 C317.37 206.49 317.37 204.97 317.37 203.45 C317.37 199.32 317.37 195.19 317.36 191.06 C317.35 186.75 317.35 182.43 317.35 178.12 C317.35 169.94 317.34 161.77 317.33 153.6 C317.32 144.29 317.31 134.99 317.31 125.69 C317.3 106.54 317.28 87.4 317.26 68.26 C312.34 69.86 312.34 69.86 307.69 72.07 C307.05 72.42 306.41 72.77 305.75 73.13 C305.07 73.5 304.39 73.87 303.69 74.26 C296.16 78.33 288.49 82.08 280.74 85.72 C274.87 88.48 269.05 91.34 263.26 94.26 C260.88 95.45 258.49 96.64 256.11 97.83 C254.01 98.88 251.91 99.94 249.81 101 C242.19 104.84 234.53 108.56 226.82 112.19 C219.64 115.58 212.59 119.15 205.6 122.92 C200.14 125.84 194.6 128.55 189.01 131.19 C187.81 131.76 187.81 131.76 186.59 132.34 C182.85 134.09 179.12 135.78 175.26 137.26 C175.26 137.92 175.26 138.58 175.26 139.26 C162.32 141.84 152.71 135.61 141.69 129.64 C137.38 127.31 133.02 125.07 128.63 122.88 C127.99 122.56 127.36 122.24 126.7 121.91 C123.69 120.41 120.67 118.98 117.57 117.67 C114.93 116.54 112.38 115.37 109.82 114.07 C108.97 113.64 108.11 113.21 107.23 112.77 C106.25 112.27 105.27 111.77 104.26 111.26 C96.16 107.16 88.05 103.14 79.82 99.32 C73.35 96.32 67.05 93.07 60.77 89.68 C54.74 86.46 48.58 83.54 42.38 80.65 C35.97 77.65 29.72 74.4 23.51 71 C20.08 68.96 20.08 68.96 16.26 68.26 Z " fill="#020202" transform="translate(150.7431697845459,513.7427310943604)"/>
<path d="M0 0 C0 0.66 0 1.32 0 2 C0.58 2.09 1.17 2.19 1.77 2.29 C4.5 3.16 5.76 4.39 7.75 6.44 C8.36 7.05 8.98 7.67 9.61 8.31 C11 10 11 10 11 12 C11.66 12 12.32 12 13 12 C20.41 23.6 22.93 36.51 20.43 50.12 C16.83 64.16 8.13 75.24 -4.25 82.75 C-15.66 88.68 -28.82 89.91 -41.11 86.19 C-46.78 83.85 -52.09 80.67 -57 77 C-57 76.34 -57 75.68 -57 75 C-57.58 74.77 -58.15 74.55 -58.75 74.31 C-61.62 72.64 -63.14 70.73 -65 68 C-65 67.01 -65 66.02 -65 65 C-65.66 65 -66.32 65 -67 65 C-72.47 53.06 -74.47 40.03 -69.98 27.34 C-67.05 20.36 -63.75 13.91 -59 8 C-58.34 8 -57.68 8 -57 8 C-56.67 7.01 -56.34 6.02 -56 5 C-53.42 2.68 -52.55 2 -49 2 C-49 1.34 -49 0.68 -49 0 C-33.33 -8.21 -15.66 -8.04 0 0 Z M-37 15 C-37.99 15.33 -38.98 15.66 -40 16 C-41.71 17.38 -41.71 17.38 -43 19 C-43 19.66 -43 20.32 -43 21 C-43.66 21 -44.32 21 -45 21 C-50.44 26.44 -51.23 34.19 -51.44 41.5 C-51.29 49.4 -49.31 54.54 -45 61 C-44.34 61 -43.68 61 -43 61 C-43 61.66 -43 62.32 -43 63 C-37.98 67.81 -31.72 69.2 -25 69.38 C-19.71 69.25 -15.79 68.21 -11 66 C-11 65.34 -11 64.68 -11 64 C-10.42 63.77 -9.85 63.55 -9.25 63.31 C-4.83 60.73 -2.47 56.79 -1 52 C-0.63 48.6 -0.57 45.23 -0.56 41.81 C-0.56 40.87 -0.55 39.94 -0.55 38.97 C-0.67 32.05 -1.74 26.64 -6 21 C-6.66 21 -7.32 21 -8 21 C-8 20.34 -8 19.68 -8 19 C-13.87 13.42 -19.94 12.76 -27.75 12.84 C-31.01 13.07 -33.92 13.95 -37 15 Z " fill="#020202" transform="translate(745,545)"/>
<path d="M0 0 C0.99 0.39 1.98 0.78 3 1.19 C3.66 1.46 4.32 1.72 5 2 C5 2.66 5 3.32 5 4 C6.32 4.33 7.64 4.66 9 5 C9 5.66 9 6.32 9 7 C9.64 7.27 10.28 7.54 10.94 7.81 C13 9 13 9 14 12 C14.66 12 15.32 12 16 12 C18.3 14.56 19 15.48 19 19 C19.66 19 20.32 19 21 19 C26.46 30.41 27.61 44.87 24 57 C21.78 62.3 19.19 67.22 16 72 C15.34 72 14.68 72 14 72 C13.73 72.6 13.47 73.2 13.19 73.82 C9.33 80.89 0.55 85.4 -6.79 87.98 C-20.69 91.9 -32.71 90.66 -45.25 83.69 C-49.85 80.89 -53.54 78.13 -57 74 C-57 73.34 -57 72.68 -57 72 C-57.66 72 -58.32 72 -59 72 C-66.57 59.34 -69.08 47.51 -66.43 32.82 C-64.31 25.44 -60.69 18.1 -56 12 C-55.34 12 -54.68 12 -54 12 C-53.67 11.01 -53.34 10.02 -53 9 C-52.34 9 -51.68 9 -51 9 C-51 8.34 -51 7.68 -51 7 C-48.44 4.7 -47.52 4 -44 4 C-44 3.34 -44 2.68 -44 2 C-30.64 -5 -13.93 -6.57 0 0 Z M-37 20 C-45.56 30.17 -46.49 38.66 -45.81 51.56 C-44.78 55.94 -42.89 59.54 -40 63 C-39.34 63 -38.68 63 -38 63 C-37.67 63.99 -37.34 64.98 -37 66 C-34.98 67.21 -34.98 67.21 -32.56 68.12 C-31.76 68.46 -30.96 68.79 -30.13 69.13 C-29.43 69.42 -28.72 69.71 -28 70 C-27.34 70.33 -26.68 70.66 -26 71 C-18.63 71.59 -12.72 71.1 -6 68 C-6 67.34 -6 66.68 -6 66 C-5.42 65.77 -4.85 65.55 -4.25 65.31 C0.69 62.43 2.86 57.96 4.46 52.65 C6.71 41.65 4.35 33.34 -0.75 23.69 C-4.2 19.56 -8.33 16.89 -13.44 15.19 C-21.88 14.57 -29.96 14.59 -37 20 Z " fill="#020202" transform="translate(1208,543)"/>
<path d="M0 0 C0.93 0.42 0.93 0.42 1.87 0.84 C8.47 4.15 12.17 9.87 14.49 16.77 C16.32 24.8 15.38 32.02 11 39 C8.85 41.86 6.66 44.6 4 47 C3.34 47 2.68 47 2 47 C2.58 52.26 4.33 56.32 6.62 61 C7.15 62.11 7.15 62.11 7.7 63.23 C9.45 66.88 11.25 70.51 13.09 74.12 C13.41 74.75 13.73 75.39 14.06 76.04 C14.95 77.78 15.85 79.51 16.75 81.24 C18 84 18 84 18 87 C16.45 88.55 14.97 88.13 12.82 88.13 C11.97 88.13 11.13 88.14 10.26 88.14 C9.37 88.13 8.48 88.13 7.56 88.12 C6.68 88.13 5.79 88.13 4.88 88.14 C4.03 88.14 3.19 88.13 2.32 88.13 C1.54 88.13 0.76 88.13 -0.04 88.13 C-2 88 -2 88 -4 87 C-5.16 84.41 -6.22 81.83 -7.25 79.19 C-9.82 72.71 -12.62 66.55 -15.93 60.42 C-17 58 -17 58 -17 54 C-21.46 54.5 -21.46 54.5 -26 55 C-26.33 65.56 -26.66 76.12 -27 87 C-30.49 88.16 -33.32 88.17 -37 88.19 C-38.24 88.2 -39.48 88.22 -40.75 88.23 C-44 88 -44 88 -47 86 C-47.3 83.23 -47.4 80.69 -47.37 77.93 C-47.38 77.09 -47.38 76.26 -47.38 75.4 C-47.39 72.63 -47.38 69.86 -47.36 67.1 C-47.36 65.18 -47.36 63.26 -47.36 61.34 C-47.36 57.32 -47.35 53.29 -47.34 49.27 C-47.31 44.11 -47.31 38.94 -47.32 33.78 C-47.32 29.82 -47.32 25.86 -47.31 21.89 C-47.3 19.99 -47.3 18.09 -47.3 16.18 C-47.3 13.52 -47.29 10.86 -47.27 8.2 C-47.28 7.41 -47.28 6.62 -47.28 5.81 C-47.24 2.01 -47.16 0.24 -45 -3 C-31.57 -5.95 -12.62 -5.98 0 0 Z M-26 14 C-27.22 16.44 -27.13 18.03 -27.13 20.75 C-27.13 21.69 -27.14 22.63 -27.14 23.59 C-27.13 24.57 -27.13 25.55 -27.12 26.56 C-27.13 27.55 -27.13 28.53 -27.14 29.54 C-27.14 30.48 -27.13 31.42 -27.13 32.38 C-27.13 33.24 -27.13 34.1 -27.13 34.99 C-27.22 37 -27.22 37 -26 38 C-19.11 38.64 -12.77 38.11 -7.12 33.81 C-4.54 30.39 -4.08 28.27 -4 24 C-4.94 20.56 -6.06 18.06 -9 16 C-14.78 14.11 -19.95 13.75 -26 14 Z " fill="#020202" transform="translate(846,543)"/>
<path d="M0 0 C1.44 0.03 1.44 0.03 2.91 0.05 C10.98 0.46 19.09 2.51 25.24 8 C29.93 13.28 32.25 17.07 32.69 24.25 C32.77 25.53 32.86 26.82 32.95 28.14 C33.03 34.26 32.61 38.86 29.06 43.94 C28.54 44.71 28.01 45.48 27.47 46.28 C26.99 46.85 26.5 47.41 26 48 C25.34 48 24.68 48 24 48 C24 48.66 24 49.32 24 50 C22.71 51.37 21.38 52.71 20 54 C20.75 55.49 21.49 56.98 22.24 58.47 C22.87 59.75 23.51 61.03 24.15 62.3 C25.59 65.18 27.02 68.05 28.47 70.91 C30.31 74.55 32.11 78.17 33.69 81.94 C34.93 85.09 34.93 85.09 37 88 C36.62 90.19 36.62 90.19 36 92 C32.73 92.12 29.46 92.19 26.19 92.25 C25.26 92.28 24.33 92.32 23.37 92.35 C22.03 92.37 22.03 92.37 20.67 92.39 C19.85 92.41 19.02 92.43 18.18 92.45 C16 92 16 92 14.27 90.12 C12.88 87.79 12.03 85.58 11.19 83 C9.33 77.66 6.97 72.74 4.37 67.73 C3.1 65.19 2.05 62.63 1 60 C-1.4 57.6 -5.62 58.38 -9 58 C-9 68.89 -9 79.78 -9 91 C-11.96 92.48 -14.65 92.13 -17.94 92.12 C-19.18 92.13 -20.43 92.13 -21.71 92.13 C-25 92 -25 92 -28 91 C-28.02 79.56 -28.04 68.12 -28.05 56.68 C-28.06 51.37 -28.06 46.06 -28.08 40.75 C-28.09 35.63 -28.09 30.5 -28.09 25.38 C-28.1 23.42 -28.1 21.47 -28.11 19.51 C-28.11 16.77 -28.11 14.04 -28.11 11.31 C-28.12 10.49 -28.12 9.67 -28.12 8.83 C-28.11 3.23 -28.11 3.23 -27 1 C-18.18 -0.49 -8.91 -0.22 0 0 Z M-9 19 C-9.09 20.63 -9.11 22.27 -9.1 23.91 C-9.09 24.9 -9.09 25.89 -9.09 26.91 C-9.08 27.95 -9.07 28.99 -9.06 30.06 C-9.06 31.11 -9.05 32.15 -9.05 33.23 C-9.04 35.82 -9.02 38.41 -9 41 C-4.71 43.14 0.72 42.3 5.25 41.25 C8.46 39.79 10.59 38.61 13 36 C14.3 30.65 14.32 27.12 12 22 C7.98 17.98 1.47 17.87 -4 17.81 C-6.8 17.65 -6.8 17.65 -9 19 Z " fill="#020202" transform="translate(926,539)"/>
<path d="M0 0 C0.91 -0.01 1.83 -0.01 2.77 -0.02 C3.75 -0 4.74 0.01 5.75 0.02 C6.77 0.03 7.78 0.03 8.82 0.03 C10.96 0.03 13.1 0.05 15.24 0.07 C18.52 0.11 21.8 0.12 25.09 0.11 C27.16 0.12 29.24 0.14 31.32 0.15 C32.8 0.15 32.8 0.15 34.31 0.16 C35.22 0.17 36.13 0.18 37.07 0.2 C37.87 0.2 38.67 0.21 39.5 0.22 C41.47 0.49 41.47 0.49 43.47 2.49 C43.7 4.62 43.7 4.62 43.66 7.17 C43.65 8 43.64 8.83 43.64 9.69 C43.44 12.97 42.93 16.23 42.47 19.49 C32.57 19.49 22.67 19.49 12.47 19.49 C12.47 24.11 12.47 28.73 12.47 33.49 C14.11 33.46 15.74 33.44 17.43 33.42 C19.57 33.4 21.71 33.38 23.84 33.36 C24.92 33.34 26 33.33 27.12 33.31 C28.15 33.3 29.18 33.3 30.24 33.29 C31.67 33.27 31.67 33.27 33.13 33.26 C35.47 33.49 35.47 33.49 37.47 35.49 C37.67 38.03 37.75 40.44 37.72 42.99 C37.73 44.02 37.73 44.02 37.74 45.08 C37.72 50.23 37.72 50.23 35.47 52.49 C33.13 52.71 33.13 52.71 30.24 52.68 C28.7 52.67 28.7 52.67 27.12 52.66 C25.5 52.64 25.5 52.64 23.84 52.61 C22.76 52.6 21.67 52.59 20.55 52.58 C17.85 52.56 15.16 52.52 12.47 52.49 C12.8 59.09 13.13 65.69 13.47 72.49 C23.7 72.49 33.93 72.49 44.47 72.49 C46 75.55 45.57 78.75 45.53 82.11 C45.53 82.82 45.52 83.52 45.52 84.25 C45.51 86 45.49 87.74 45.47 89.49 C42.5 91.19 40.36 91.74 36.95 91.74 C36.06 91.75 35.17 91.76 34.26 91.76 C32.83 91.76 32.83 91.76 31.37 91.75 C29.9 91.75 29.9 91.75 28.39 91.76 C26.32 91.76 24.24 91.75 22.16 91.75 C18.98 91.74 15.8 91.75 12.62 91.76 C10.6 91.76 8.58 91.76 6.56 91.75 C5.61 91.76 4.66 91.76 3.68 91.76 C2.79 91.76 1.9 91.75 0.99 91.74 C0.21 91.74 -0.57 91.74 -1.37 91.74 C-3.79 91.46 -5.43 90.69 -7.53 89.49 C-7.6 78.47 -7.65 67.46 -7.69 56.45 C-7.7 51.33 -7.72 46.22 -7.76 41.1 C-7.79 36.17 -7.81 31.24 -7.82 26.3 C-7.82 24.42 -7.83 22.53 -7.85 20.65 C-7.87 18.01 -7.87 15.38 -7.87 12.74 C-7.88 11.96 -7.89 11.18 -7.9 10.38 C-7.89 7.22 -7.71 4.85 -6.29 2 C-4.06 0.08 -2.93 -0.01 0 0 Z " fill="#020202" transform="translate(1002.531494140625,539.51416015625)"/>
<path d="M0 0 C1 1 1 1 1.11 2.95 C1.11 4.2 1.11 4.2 1.1 5.47 C1.09 6.82 1.09 6.82 1.09 8.2 C1.08 9.62 1.08 9.62 1.06 11.06 C1.06 12.01 1.05 12.96 1.05 13.94 C1.04 16.29 1.02 18.65 1 21 C0.34 21.33 -0.32 21.66 -1 22 C-1.56 21.55 -2.11 21.09 -2.69 20.62 C-10.13 15.4 -20.67 15.46 -29.5 16.19 C-33.66 17.15 -36.38 18.76 -40 21 C-40.66 21 -41.32 21 -42 21 C-42.43 22.11 -42.43 22.11 -42.88 23.25 C-44 26 -44 26 -45.06 27.94 C-48.85 36.28 -47.88 47.54 -45 56 C-45 57.32 -45 58.64 -45 60 C-44.34 60 -43.68 60 -43 60 C-41.65 61.65 -40.31 63.32 -39 65 C-38.34 65.33 -37.68 65.66 -37 66 C-37 66.66 -37 67.32 -37 68 C-35.91 68.14 -34.81 68.29 -33.69 68.44 C-30 69 -30 69 -27 70 C-19.17 70.57 -10.54 69.56 -4.06 64.88 C-3.04 63.95 -3.04 63.95 -2 63 C-0.35 62.61 1.32 62.27 3 62 C3.15 65.08 3.23 68.16 3.31 71.25 C3.35 72.12 3.4 73 3.44 73.89 C3.56 80.33 3.56 80.33 0.95 83.44 C-11.25 89.91 -24.52 92.09 -38 88.69 C-44.83 86.54 -50.38 83.39 -56 79 C-56 78.34 -56 77.68 -56 77 C-56.66 77 -57.32 77 -58 77 C-65.96 67.23 -69.4 56.12 -69.31 43.69 C-69.31 42.85 -69.3 42.02 -69.3 41.16 C-69.18 34.74 -68.37 29.01 -66 23 C-65.74 22.31 -65.49 21.62 -65.23 20.91 C-60.73 10.48 -52.21 3.44 -42 -1 C-29.41 -5.64 -12.13 -6.06 0 0 Z " fill="#020202" transform="translate(642,543)"/>
<path d="M0 0 C1.38 -0.01 2.76 -0.01 4.15 -0.02 C7.03 -0.03 9.91 -0.03 12.8 -0.01 C16.48 0.02 20.15 -0.01 23.83 -0.05 C26.68 -0.08 29.53 -0.08 32.38 -0.06 C34.39 -0.06 36.4 -0.09 38.41 -0.11 C45.39 -0.02 49.95 0.47 55.28 5.18 C58.54 8.62 59.58 10.77 60.28 15.51 C60.08 20.61 57.38 24.3 53.72 27.7 C49.47 30.17 46.36 31.08 41.46 31.1 C40.24 31.12 39.02 31.13 37.77 31.14 C36.46 31.14 35.16 31.14 33.82 31.13 C32.45 31.14 31.09 31.14 29.72 31.15 C26.87 31.16 24.02 31.16 21.16 31.15 C17.52 31.13 13.88 31.15 10.23 31.18 C7.42 31.2 4.6 31.2 1.78 31.2 C-0.21 31.2 -2.2 31.21 -4.19 31.23 C-11.08 31.18 -15.69 30.89 -21.28 26.7 C-21.28 26.04 -21.28 25.38 -21.28 24.7 C-21.94 24.7 -22.6 24.7 -23.28 24.7 C-25.36 21.28 -26.3 19.24 -26.16 15.2 C-24.85 9.97 -23.51 6.26 -19.05 3.06 C-13.1 -0.51 -6.76 -0.04 0 0 Z " fill="#020202" transform="translate(51.28125,541.30078125)"/>
<path d="M0 0 C0.49 2.94 0.63 5.3 0.57 8.24 C0.57 9.07 0.57 9.91 0.57 10.78 C0.57 13.55 0.53 16.33 0.49 19.11 C0.48 21.03 0.47 22.95 0.47 24.88 C0.45 29.94 0.4 35.01 0.34 40.07 C0.29 45.24 0.27 50.41 0.24 55.58 C0.19 65.72 0.11 75.86 0 86 C-3.84 88.11 -6.66 88.24 -11.06 88.19 C-12.29 88.18 -13.52 88.17 -14.79 88.17 C-18 88 -18 88 -21 87 C-21.02 75.54 -21.04 64.09 -21.05 52.63 C-21.06 47.31 -21.06 41.99 -21.08 36.67 C-21.09 31.54 -21.09 26.42 -21.09 21.29 C-21.1 19.33 -21.1 17.36 -21.11 15.4 C-21.11 12.67 -21.11 9.93 -21.11 7.19 C-21.12 6.37 -21.12 5.55 -21.12 4.71 C-21.11 -0.89 -21.11 -0.89 -20 -2 C-17.57 -2.32 -15.19 -2.56 -12.75 -2.75 C-12.08 -2.82 -11.41 -2.89 -10.72 -2.96 C-6.15 -3.31 -3.48 -3.03 0 0 Z " fill="#020202" transform="translate(1106,543)"/>
<path d="M0 0 C1.17 -0 1.17 -0 2.36 -0.01 C4 -0.01 5.64 -0.01 7.28 0.01 C9.77 0.02 12.27 0.01 14.77 -0.01 C16.37 -0.01 17.96 -0.01 19.56 0 C20.67 -0.01 20.67 -0.01 21.81 -0.02 C27.33 0.06 31.26 1.36 35.6 4.77 C38.52 8.58 39.36 12.48 39.23 17.27 C38.52 21.22 36.6 24.51 33.85 27.4 C29.12 30.29 25.14 30.82 19.71 30.73 C18.57 30.72 18.57 30.72 17.4 30.72 C15.8 30.71 14.21 30.7 12.61 30.68 C10.16 30.65 7.71 30.64 5.26 30.63 C3.7 30.62 2.14 30.61 0.59 30.6 C-0.51 30.6 -0.51 30.6 -1.63 30.59 C-4.73 30.54 -7.19 30.39 -10.15 29.4 C-10.15 28.74 -10.15 28.08 -10.15 27.4 C-11.14 27.4 -12.13 27.4 -13.15 27.4 C-13.15 26.74 -13.15 26.08 -13.15 25.4 C-14.14 25.07 -15.13 24.74 -16.15 24.4 C-19.27 19.72 -18.86 14.87 -18.15 9.4 C-14.61 1.84 -7.7 -0.06 0 0 Z " fill="#020202" transform="translate(404.15234375,679.6015625)"/>
<path d="M0 0 C1.87 -0.02 1.87 -0.02 3.79 -0.04 C17.53 -0.06 17.53 -0.06 23.81 3.94 C27.41 7.54 28.89 10.62 29.44 15.69 C28.87 21 27.49 23.99 23.38 27.44 C14.92 31.91 6.78 31.37 -2.56 31 C-3.86 30.97 -5.16 30.94 -6.49 30.9 C-7.75 30.86 -9 30.82 -10.29 30.77 C-11.42 30.73 -12.55 30.69 -13.72 30.65 C-19.29 29.85 -23.32 27.45 -26.94 23.19 C-29.13 20.12 -29.41 17.02 -29.32 13.28 C-28.47 8.66 -25.28 5.49 -22 2.31 C-15.63 -1.16 -7.02 0 0 0 Z " fill="#020202" transform="translate(81.9375,596.8125)"/>
<path d="M0 0 C0 0.66 0 1.32 0 2 C0.99 2.33 1.98 2.66 3 3 C4.13 4.74 4.13 4.74 5.12 6.88 C5.46 7.57 5.79 8.27 6.13 8.99 C9.07 15.79 9.21 23.8 7.16 30.9 C4.1 37.59 -0.43 43.22 -7.42 45.94 C-13.18 47.36 -18.52 47.39 -24 45 C-31.03 40.54 -33.37 35.86 -35.55 28.02 C-37.37 19.81 -35.12 12.79 -31.81 5.31 C-28.29 0.82 -23.86 -2.11 -18.75 -4.56 C-12.21 -5.33 -5.48 -3.65 0 0 Z M-21.35 2.29 C-27.01 8.16 -27.26 15.69 -27.15 23.41 C-26.72 30.81 -25.37 35.76 -20 41 C-17.65 43.08 -17.65 43.08 -15 44 C-12.35 43.34 -12.35 43.34 -10 42 C-8.51 41.5 -8.51 41.5 -7 41 C-1.26 31.95 0.3 23.61 -1 13 C-2.57 7.45 -5.03 3.4 -9.62 -0.12 C-15.26 -3.25 -17.02 -1.61 -21.35 2.29 Z " fill="#020202" transform="translate(725,711)"/>
<path d="M0 0 C1.11 0.01 2.21 0.03 3.36 0.04 C11.49 0.33 16.83 2.02 22.62 7.81 C26.58 15.29 27.2 24.41 25.06 32.57 C22.54 38.78 18.81 42.86 13.32 46.59 C8.06 48.58 3.07 48.29 -2.5 48.19 C-4.15 48.18 -4.15 48.18 -5.84 48.17 C-13.94 48.09 -13.94 48.09 -16.25 46.94 C-15.92 45.95 -15.59 44.96 -15.25 43.94 C-14.26 43.44 -14.26 43.44 -13.25 42.94 C-13.18 37.58 -13.12 32.22 -13.09 26.87 C-13.07 25.04 -13.05 23.22 -13.02 21.4 C-12.99 18.78 -12.97 16.16 -12.96 13.54 C-12.94 12.73 -12.93 11.91 -12.91 11.07 C-12.77 6.79 -12.77 6.79 -14.77 3.2 C-15.26 2.78 -15.75 2.37 -16.25 1.94 C-11.14 -1.13 -5.76 -0.21 0 0 Z M-4.25 4.94 C-4.35 7.74 -4.39 10.51 -4.38 13.31 C-4.38 14.15 -4.38 14.99 -4.39 15.86 C-4.39 17.64 -4.38 19.41 -4.38 21.19 C-4.38 23.93 -4.38 26.66 -4.39 29.39 C-4.39 31.11 -4.38 32.84 -4.38 34.56 C-4.38 35.39 -4.39 36.21 -4.39 37.06 C-4.74 40.8 -4.74 40.8 -3.25 43.94 C-1.06 44.01 1.13 44.02 3.31 44 C4.51 43.99 5.71 43.98 6.94 43.97 C8.33 43.96 8.33 43.96 9.75 43.94 C9.75 43.28 9.75 42.62 9.75 41.94 C11.24 41.44 11.24 41.44 12.75 40.94 C12.75 40.28 12.75 39.62 12.75 38.94 C13.41 38.94 14.07 38.94 14.75 38.94 C19.08 28.5 18.59 19.47 14.75 8.94 C14.09 8.94 13.43 8.94 12.75 8.94 C12.75 8.28 12.75 7.62 12.75 6.94 C11.71 5.19 11.71 5.19 9.75 3.94 C6.58 3.54 6.58 3.54 3.12 3.69 C1.96 3.7 0.79 3.72 -0.41 3.73 C-3.15 3.62 -3.15 3.62 -4.25 4.94 Z " fill="#020202" transform="translate(898.25,708.0625)"/>
<path d="M0 0 C1.29 -0 2.58 -0 3.91 -0 C4.91 -0 4.91 -0 5.94 0 C7.99 0.01 10.04 0 12.1 -0 C14.03 -0 14.03 -0 16 0 C17.19 0 18.37 0 19.59 0 C22.43 0.13 22.43 0.13 24.43 1.13 C24.46 2.76 24.48 4.38 24.5 6.01 C24.51 6.91 24.52 7.82 24.53 8.75 C24.43 11.13 24.43 11.13 23.43 13.13 C22.77 13.13 22.11 13.13 21.43 13.13 C20.11 10.49 18.79 7.85 17.43 5.13 C13.14 5.13 8.85 5.13 4.43 5.13 C4.43 10.41 4.43 15.69 4.43 21.13 C6.41 21.13 8.39 21.13 10.43 21.13 C10.76 18.82 11.09 16.51 11.43 14.13 C12.09 14.13 12.75 14.13 13.43 14.13 C15.03 17.32 14.54 20.76 14.5 24.26 C14.49 25.01 14.49 25.77 14.48 26.54 C14.47 28.41 14.45 30.27 14.43 32.13 C12.95 32.63 12.95 32.63 11.43 33.13 C11.1 31.15 10.77 29.17 10.43 27.13 C8.45 26.8 6.47 26.47 4.43 26.13 C4.1 32.07 3.77 38.01 3.43 44.13 C8.38 44.13 13.33 44.13 18.43 44.13 C18.43 43.47 18.43 42.81 18.43 42.13 C19.09 42.13 19.75 42.13 20.43 42.13 C20.37 41.18 20.31 40.24 20.25 39.26 C20.34 37.71 20.34 37.71 20.43 36.13 C21.42 35.47 22.41 34.81 23.43 34.13 C24.88 38.64 25.78 42.34 25.43 47.13 C24.43 48.13 24.43 48.13 21.29 48.25 C19.9 48.25 18.51 48.24 17.12 48.23 C16.39 48.23 15.66 48.23 14.9 48.23 C12.56 48.22 10.21 48.21 7.87 48.2 C6.29 48.19 4.7 48.19 3.12 48.18 C-0.78 48.17 -4.67 48.15 -8.57 48.13 C-8.57 46.81 -8.57 45.49 -8.57 44.13 C-7.58 44.13 -6.59 44.13 -5.57 44.13 C-5.57 30.93 -5.57 17.73 -5.57 4.13 C-6.89 3.8 -8.21 3.47 -9.57 3.13 C-9.57 2.47 -9.57 1.81 -9.57 1.13 C-6.18 0 -3.57 0 0 0 Z " fill="#020202" transform="translate(1097.56640625,707.8671875)"/>
<path d="M0 0 C0.68 -0.03 1.36 -0.05 2.06 -0.08 C4.71 0.37 5.31 1.15 7 3.25 C8.59 5.54 10.12 7.84 11.62 10.19 C12.03 10.81 12.44 11.43 12.86 12.07 C14.82 15.11 16.26 17.72 17 21.25 C17.66 21.25 18.32 21.25 19 21.25 C22.88 27.88 22.88 27.88 24 31.25 C24.66 31.25 25.32 31.25 26 31.25 C25.67 22.34 25.34 13.43 25 4.25 C23.68 4.25 22.36 4.25 21 4.25 C21 3.26 21 2.27 21 1.25 C24.55 0.07 27.27 -0.02 31 0.25 C32.94 1.75 32.94 1.75 34 3.25 C32.02 4.24 32.02 4.24 30 5.25 C29.67 19.11 29.34 32.97 29 47.25 C27.68 47.25 26.36 47.25 25 47.25 C23.18 45.2 23.18 45.2 21.44 42.5 C20.86 41.62 20.28 40.74 19.68 39.83 C19.13 38.98 18.57 38.13 18 37.25 C17.15 36.19 17.15 36.19 16.29 35.11 C15 33.25 15 33.25 15 30.25 C14.34 30.25 13.68 30.25 13 30.25 C10.96 27.34 10 25.85 10 22.25 C9.34 22.25 8.68 22.25 8 22.25 C6.02 18.95 4.04 15.65 2 12.25 C1.67 22.81 1.34 33.37 1 44.25 C2.65 44.58 4.3 44.91 6 45.25 C4.33 47.28 3.44 48.17 0.81 48.65 C0.03 48.64 -0.76 48.63 -1.56 48.62 C-2.74 48.64 -2.74 48.64 -3.94 48.65 C-4.62 48.52 -5.3 48.39 -6 48.25 C-6.66 47.26 -7.32 46.27 -8 45.25 C-6.02 44.75 -6.02 44.75 -4 44.25 C-3.67 31.38 -3.34 18.51 -3 5.25 C-5.48 4.26 -5.48 4.26 -8 3.25 C-6.33 -0.08 -3.39 0.08 0 0 Z " fill="#020202" transform="translate(834,707.75)"/>
<path d="M0 0 C2.16 2.06 3.36 3.53 4.88 6 C5.28 6.62 5.69 7.23 6.11 7.87 C7.44 9.89 8.72 11.94 10 14 C10.95 15.5 11.91 17 12.86 18.49 C15.28 22.3 17.64 26.15 20 30 C20 21.75 20 13.5 20 5 C18.68 4.34 17.36 3.68 16 3 C17 1 17 1 20 0 C26.41 -0.46 26.41 -0.46 28.94 1.5 C29.29 2 29.64 2.49 30 3 C28.35 3.66 26.7 4.32 25 5 C25 18.86 25 32.72 25 47 C23.02 47.5 23.02 47.5 21 48 C19.85 46.25 18.7 44.5 17.56 42.75 C16.92 41.78 16.29 40.8 15.63 39.8 C14.24 37.42 13.45 35.68 13 33 C12.34 33 11.68 33 11 33 C8.96 30.09 8 28.6 8 25 C7.34 25 6.68 25 6 25 C4.31 22.73 4.31 22.73 2.44 19.75 C1.82 18.78 1.2 17.8 0.56 16.8 C-0.76 14.43 -1.54 12.64 -2 10 C-2.66 10 -3.32 10 -4 10 C-3.67 21.22 -3.34 32.44 -3 44 C-1.68 44.33 -0.36 44.66 1 45 C0.67 45.99 0.34 46.98 0 48 C-1.62 48.03 -3.25 48.05 -4.88 48.06 C-6.23 48.08 -6.23 48.08 -7.62 48.1 C-10 48 -10 48 -12 47 C-11.67 46.01 -11.34 45.02 -11 44 C-9.51 43.5 -9.51 43.5 -8 43 C-8 30.46 -8 17.92 -8 5 C-9.32 4.34 -10.64 3.68 -12 3 C-9.92 -1.17 -4.13 -0.84 0 0 Z " fill="#020202" transform="translate(1000,708)"/>
<path d="M0 0 C1.29 0 2.58 0 3.91 0.01 C4.58 0.01 5.25 0.02 5.94 0.02 C7.99 0.04 10.04 0.05 12.1 0.04 C22.15 0.09 22.15 0.09 24.43 1.23 C24.49 2.86 24.53 4.48 24.56 6.11 C24.58 7.01 24.61 7.92 24.63 8.85 C24.43 11.23 24.43 11.23 22.43 13.23 C20.18 10.54 18.55 8.58 17.43 5.23 C13.14 5.23 8.85 5.23 4.43 5.23 C4.43 10.51 4.43 15.79 4.43 21.23 C6.41 21.23 8.39 21.23 10.43 21.23 C10.76 18.92 11.09 16.61 11.43 14.23 C12.42 14.56 13.41 14.89 14.43 15.23 C14.43 21.17 14.43 27.11 14.43 33.23 C13.44 33.23 12.45 33.23 11.43 33.23 C11.1 31.25 10.77 29.27 10.43 27.23 C8.45 26.9 6.47 26.57 4.43 26.23 C4.43 31.84 4.43 37.45 4.43 43.23 C11.36 43.73 11.36 43.73 18.43 44.23 C19.42 40.93 20.41 37.63 21.43 34.23 C22.42 34.23 23.41 34.23 24.43 34.23 C24.63 36.19 24.81 38.15 25 40.11 C25.15 41.74 25.15 41.74 25.31 43.41 C25.43 46.23 25.43 46.23 24.43 48.23 C19.91 48.26 15.39 48.27 10.87 48.29 C9.33 48.29 7.79 48.3 6.26 48.31 C4.05 48.32 1.84 48.32 -0.37 48.33 C-1.41 48.34 -1.41 48.34 -2.46 48.34 C-7.34 48.34 -7.34 48.34 -9.57 47.23 C-9.24 46.24 -8.91 45.25 -8.57 44.23 C-7.58 44.23 -6.59 44.23 -5.57 44.23 C-5.47 39.05 -5.39 33.88 -5.35 28.7 C-5.33 26.94 -5.3 25.18 -5.26 23.42 C-5.22 20.88 -5.19 18.35 -5.18 15.81 C-5.16 15.03 -5.13 14.25 -5.11 13.44 C-5.11 9.55 -5.41 7.47 -7.59 4.19 C-8.24 3.55 -8.89 2.9 -9.57 2.23 C-5.96 -0.18 -4.29 -0.01 0 0 Z " fill="#020202" transform="translate(948.56640625,707.76953125)"/>
<path d="M0 0 C1.32 0 2.64 0 4 0 C4 3.96 4 7.92 4 12 C2.68 12.33 1.36 12.66 0 13 C-0.46 11.36 -0.46 11.36 -0.94 9.69 C-1.58 7.45 -2.26 5.21 -3 3 C-8.55 1.97 -8.55 1.97 -14 3 C-15.09 7.19 -15.47 9.2 -13.25 13 C-9.9 16.53 -5.68 18.91 -1.52 21.39 C0.67 22.79 2.36 24 4 26 C4 26.66 4 27.32 4 28 C4.66 28 5.32 28 6 28 C6.77 39.75 6.77 39.75 4.06 44.12 C-0.86 47.14 -4.98 49.51 -10.89 48.51 C-12.78 47.98 -14.66 47.4 -16.52 46.76 C-19.2 45.8 -19.2 45.8 -23 46 C-23 41.05 -23 36.1 -23 31 C-22.01 31 -21.02 31 -20 31 C-19.72 31.77 -19.44 32.54 -19.15 33.34 C-16.77 39.77 -16.77 39.77 -11.5 43.75 C-7.73 44.18 -7.73 44.18 -3 43 C-3 39.04 -3 35.08 -3 31 C-3.66 31 -4.32 31 -5 31 C-5 30.34 -5 29.68 -5 29 C-5.99 29 -6.98 29 -8 29 C-8 28.34 -8 27.68 -8 27 C-9.02 26.66 -9.02 26.66 -10.06 26.31 C-15.51 23.88 -20.77 20.76 -23 15 C-23.63 11.17 -23.86 7.68 -22.05 4.16 C-16.07 -3.54 -8.49 -3.02 0 0 Z " fill="#020202" transform="translate(1067,709)"/>
<path d="M0 0 C0.96 -0.02 1.92 -0.03 2.91 -0.05 C5.85 0.36 6.7 1.01 8.5 3.31 C7.51 3.97 6.52 4.63 5.5 5.31 C5.23 8.22 5.15 10.91 5.21 13.82 C5.21 14.66 5.22 15.5 5.22 16.37 C5.24 19.06 5.27 21.75 5.31 24.44 C5.33 26.26 5.34 28.08 5.35 29.9 C5.39 34.37 5.44 38.84 5.5 43.31 C12.43 43.81 12.43 43.81 19.5 44.31 C20.49 41.01 21.48 37.71 22.5 34.31 C23.49 34.31 24.48 34.31 25.5 34.31 C25.69 36.27 25.88 38.23 26.06 40.19 C26.22 41.82 26.22 41.82 26.38 43.49 C26.5 46.31 26.5 46.31 25.5 48.31 C20.98 48.34 16.46 48.36 11.94 48.37 C10.4 48.37 8.86 48.38 7.32 48.39 C5.11 48.4 2.9 48.41 0.7 48.41 C-0.34 48.42 -0.34 48.42 -1.39 48.43 C-6.27 48.43 -6.27 48.43 -8.5 47.31 C-8.17 46.32 -7.84 45.33 -7.5 44.31 C-6.51 44.31 -5.52 44.31 -4.5 44.31 C-4.4 39.13 -4.33 33.96 -4.28 28.78 C-4.26 27.02 -4.23 25.26 -4.2 23.5 C-4.15 20.96 -4.13 18.43 -4.11 15.89 C-4.09 15.11 -4.07 14.33 -4.05 13.52 C-4.05 9.63 -4.34 7.55 -6.52 4.28 C-7.18 3.63 -7.83 2.98 -8.5 2.31 C-5.17 0.09 -3.9 0.02 0 0 Z " fill="#020202" transform="translate(755.5,707.6875)"/>
<path d="M0 0 C0.96 -0.02 1.92 -0.03 2.91 -0.05 C5.85 0.36 6.7 1.01 8.5 3.31 C6.52 4.3 6.52 4.3 4.5 5.31 C4.5 17.85 4.5 30.39 4.5 43.31 C5.82 43.97 7.14 44.63 8.5 45.31 C8.5 45.97 8.5 46.63 8.5 47.31 C5.65 48.74 3.18 48.44 0 48.44 C-1.75 48.44 -1.75 48.44 -3.53 48.45 C-6.5 48.31 -6.5 48.31 -8.5 47.31 C-8.17 46.32 -7.84 45.33 -7.5 44.31 C-6.51 43.82 -6.51 43.82 -5.5 43.31 C-5.43 37.96 -5.37 32.6 -5.34 27.24 C-5.32 25.42 -5.3 23.6 -5.27 21.77 C-5.24 19.16 -5.22 16.54 -5.21 13.92 C-5.19 13.1 -5.18 12.29 -5.16 11.45 C-5.02 7.16 -5.02 7.16 -7.02 3.57 C-7.51 3.16 -8 2.74 -8.5 2.31 C-5.17 0.09 -3.9 0.02 0 0 Z " fill="#020202" transform="translate(803.5,707.6875)"/>
</svg>
